<svg width="24" height="24" viewBox="0 0 24 24" fill="none" xmlns="http://www.w3.org/2000/svg">
<path d="M5.40078 8.1002C5.40078 7.38411 5.68525 6.69736 6.19159 6.19101C6.69794 5.68466 7.3847 5.4002 8.10078 5.4002C8.81687 5.4002 9.50362 5.68466 10.01 6.19101C10.5163 6.69736 10.8008 7.38411 10.8008 8.1002C10.8008 8.81628 10.5163 9.50304 10.01 10.0094C9.50362 10.5157 8.81687 10.8002 8.10078 10.8002C7.3847 10.8002 6.69794 10.5157 6.19159 10.0094C5.68525 9.50304 5.40078 8.81628 5.40078 8.1002ZM8.10078 4.2002C7.06644 4.2002 6.07446 4.61109 5.34306 5.34248C4.61167 6.07387 4.20078 7.06585 4.20078 8.1002C4.20078 9.13454 4.61167 10.1265 5.34306 10.8579C6.07446 11.5893 7.06644 12.0002 8.10078 12.0002C9.13513 12.0002 10.1271 11.5893 10.8585 10.8579C11.5899 10.1265 12.0008 9.13454 12.0008 8.1002C12.0008 7.06585 11.5899 6.07387 10.8585 5.34248C10.1271 4.61109 9.13513 4.2002 8.10078 4.2002ZM12.0008 13.2002C12.4784 13.2002 12.9224 13.3394 13.2968 13.5794C12.9707 13.8313 12.7417 14.1883 12.6488 14.5898C12.4555 14.4656 12.2305 14.3997 12.0008 14.4002H4.20078C3.88252 14.4002 3.5773 14.5266 3.35225 14.7517C3.12721 14.9767 3.00078 15.2819 3.00078 15.6002V15.6938L3.00918 15.7934C3.0742 16.3686 3.2794 16.9191 3.60678 17.3966C4.19118 18.2414 5.41638 19.2002 8.10078 19.2002C10.7852 19.2002 12.0104 18.2414 12.5948 17.3966L12.6008 17.387V17.4002C12.6008 17.861 12.7736 18.2822 13.0592 18.6002C12.9697 18.7004 12.8916 18.8103 12.8264 18.9278C11.8736 19.7654 10.388 20.4002 8.10078 20.4002C5.08518 20.4002 3.46038 19.2962 2.61918 18.0794C2.17617 17.4341 1.89994 16.6891 1.81518 15.911C1.80801 15.8412 1.80321 15.7711 1.80078 15.701V15.6002C1.80078 14.9637 2.05364 14.3532 2.50372 13.9031C2.95381 13.4531 3.56426 13.2002 4.20078 13.2002H12.0008ZM15.6008 9.0002C15.6008 8.52281 15.7904 8.06497 16.128 7.7274C16.4656 7.38984 16.9234 7.2002 17.4008 7.2002C17.8782 7.2002 18.336 7.38984 18.6736 7.7274C19.0111 8.06497 19.2008 8.52281 19.2008 9.0002C19.2008 9.47759 19.0111 9.93542 18.6736 10.273C18.336 10.6106 17.8782 10.8002 17.4008 10.8002C16.9234 10.8002 16.4656 10.6106 16.128 10.273C15.7904 9.93542 15.6008 9.47759 15.6008 9.0002ZM17.4008 6.0002C16.6051 6.0002 15.8421 6.31627 15.2795 6.87888C14.7169 7.44148 14.4008 8.20455 14.4008 9.0002C14.4008 9.79585 14.7169 10.5589 15.2795 11.1215C15.8421 11.6841 16.6051 12.0002 17.4008 12.0002C18.1964 12.0002 18.9595 11.6841 19.5221 11.1215C20.0847 10.5589 20.4008 9.79585 20.4008 9.0002C20.4008 8.20455 20.0847 7.44148 19.5221 6.87888C18.9595 6.31627 18.1964 6.0002 17.4008 6.0002ZM14.4008 14.4002C14.2417 14.4002 14.089 14.4634 13.9765 14.5759C13.864 14.6885 13.8008 14.8411 13.8008 15.0002C13.8008 15.1593 13.864 15.3119 13.9765 15.4245C14.089 15.537 14.2417 15.6002 14.4008 15.6002H21.6008C21.7599 15.6002 21.9125 15.537 22.025 15.4245C22.1376 15.3119 22.2008 15.1593 22.2008 15.0002C22.2008 14.8411 22.1376 14.6885 22.025 14.5759C21.9125 14.4634 21.7599 14.4002 21.6008 14.4002H14.4008ZM14.4008 16.8002C14.2417 16.8002 14.089 16.8634 13.9765 16.9759C13.864 17.0885 13.8008 17.2411 13.8008 17.4002C13.8008 17.5593 13.864 17.7119 13.9765 17.8245C14.089 17.937 14.2417 18.0002 14.4008 18.0002H21.6008C21.7599 18.0002 21.9125 17.937 22.025 17.8245C22.1376 17.7119 22.2008 17.5593 22.2008 17.4002C22.2008 17.2411 22.1376 17.0885 22.025 16.9759C21.9125 16.8634 21.7599 16.8002 21.6008 16.8002H14.4008ZM14.4008 19.2002C14.2417 19.2002 14.089 19.2634 13.9765 19.3759C13.864 19.4885 13.8008 19.6411 13.8008 19.8002C13.8008 19.9593 13.864 20.1119 13.9765 20.2245C14.089 20.337 14.2417 20.4002 14.4008 20.4002H21.6008C21.7599 20.4002 21.9125 20.337 22.025 20.2245C22.1376 20.1119 22.2008 19.9593 22.2008 19.8002C22.2008 19.6411 22.1376 19.4885 22.025 19.3759C21.9125 19.2634 21.7599 19.2002 21.6008 19.2002H14.4008Z" fill="#9BC327"/>
</svg>
