<svg width="21" height="21" viewBox="0 0 21 21" fill="none" xmlns="http://www.w3.org/2000/svg">
<path d="M20.6864 10.2811C20.6882 11.6728 20.4065 13.0503 19.8584 14.3296L19.8244 14.4081C18.8973 16.5172 17.2897 18.2545 15.2587 19.3422C13.2278 20.4299 10.8907 20.8051 8.62135 20.4079C8.5596 20.397 8.49796 20.3856 8.43641 20.3738C7.80049 20.2506 7.17776 20.0669 6.5767 19.8254C6.47906 19.7862 6.38213 19.7455 6.28591 19.7034C6.22021 19.6749 6.1545 19.6453 6.08941 19.6149C4.30876 18.7896 2.80115 17.4725 1.74427 15.8188C0.687399 14.1651 0.125313 12.2437 0.124268 10.2811C0.124268 4.60306 4.72732 0 10.4053 0C16.0833 0 20.6864 4.60306 20.6864 10.2811Z" fill="#6C63FF"/>
<path opacity="0.2" d="M8.6216 20.4078C8.55986 20.3969 8.49821 20.3855 8.43667 20.3737C8.39652 19.2084 8.25873 16.8167 7.78878 14.3119C7.53175 12.941 7.17496 11.5357 6.68007 10.2794C6.51052 9.84476 6.31687 9.41988 6.10001 9.00677C5.59995 8.06232 4.99343 7.26721 4.25793 6.72852L4.36622 6.58069C4.97791 7.02904 5.52766 7.65848 6.01545 8.469C6.16176 8.71173 6.30228 8.97068 6.43703 9.24586C6.58152 9.5403 6.71931 9.85288 6.85041 10.1836C6.93405 10.3941 7.01486 10.6119 7.09283 10.837C7.43229 11.8143 7.72085 12.9294 7.95851 14.1823C8.01113 14.4591 8.06122 14.7427 8.10877 15.0331C8.47712 17.283 8.58815 19.3633 8.6216 20.4078Z" fill="black"/>
<path opacity="0.2" d="M6.28586 19.7031C6.22016 19.6745 6.15446 19.645 6.08936 19.6145C6.02579 18.9241 5.90899 18.0675 5.69546 17.2545C5.60194 16.8893 5.48188 16.5314 5.33623 16.1838C5.09259 15.6134 4.77716 15.1286 4.36926 14.8296L4.47755 14.6821C4.90461 14.9948 5.23403 15.489 5.48862 16.0673C5.77546 16.7188 5.96678 17.4771 6.09423 18.2017C6.18883 18.7397 6.24845 19.2596 6.28586 19.7031Z" fill="black"/>
<path opacity="0.2" d="M3.23418 6.72423C3.73964 6.72423 4.1494 6.31447 4.1494 5.80901C4.1494 5.30355 3.73964 4.8938 3.23418 4.8938C2.72873 4.8938 2.31897 5.30355 2.31897 5.80901C2.31897 6.31447 2.72873 6.72423 3.23418 6.72423Z" fill="black"/>
<path opacity="0.2" d="M3.52935 14.6031C4.03481 14.6031 4.44456 14.1934 4.44456 13.6879C4.44456 13.1825 4.03481 12.7727 3.52935 12.7727C3.02389 12.7727 2.61414 13.1825 2.61414 13.6879C2.61414 14.1934 3.02389 14.6031 3.52935 14.6031Z" fill="black"/>
<path opacity="0.2" d="M6.86844 7.34597C6.67437 8.44091 7.1028 9.43236 7.1028 9.43236C7.1028 9.43236 7.84589 8.64856 8.03996 7.55362C8.23404 6.45868 7.80561 5.46722 7.80561 5.46722C7.80561 5.46722 7.06252 6.25103 6.86844 7.34597Z" fill="black"/>
<path opacity="0.2" d="M3.82687 9.94575C4.87124 10.3276 5.9207 10.0826 5.9207 10.0826C5.9207 10.0826 5.27688 9.21833 4.2325 8.83643C3.18813 8.45454 2.13867 8.69962 2.13867 8.69962C2.13867 8.69962 2.78249 9.56386 3.82687 9.94575Z" fill="black"/>
<path opacity="0.2" d="M3.64978 16.9213C4.3818 17.1889 5.11842 17.0143 5.11842 17.0143C5.11842 17.0143 4.6682 16.4057 3.93617 16.138C3.20415 15.8704 2.46753 16.045 2.46753 16.045C2.46753 16.045 2.91776 16.6536 3.64978 16.9213Z" fill="black"/>
<path d="M10.3843 12.5573C12.5979 12.5573 14.3924 10.7628 14.3924 8.54917C14.3924 6.33556 12.5979 4.54108 10.3843 4.54108C8.17071 4.54108 6.37622 6.33556 6.37622 8.54917C6.37622 10.7628 8.17071 12.5573 10.3843 12.5573Z" fill="#D0CDE1"/>
<path d="M8.81787 11.6208C8.81787 11.6208 9.31888 14.0006 9.31888 14.2511C9.31888 14.5016 11.6987 15.6289 11.6987 15.6289L13.828 15.2531L14.5795 12.9985C14.5795 12.9985 13.327 11.1197 13.327 10.3682L8.81787 11.6208Z" fill="#D0CDE1"/>
<path d="M19.8572 14.3314L19.8231 14.4099C18.896 16.519 17.2885 18.2563 15.2575 19.344C13.2265 20.4317 10.8895 20.8069 8.62011 20.4097C8.55836 20.3988 8.49672 20.3874 8.43517 20.3756C7.79925 20.2524 7.17652 20.0687 6.57546 19.8272C6.47782 19.788 6.38089 19.7473 6.28467 19.7052C6.21897 19.6767 6.15326 19.6471 6.08817 19.6167C5.49816 19.3434 4.93545 19.0146 4.40761 18.6349L3.9325 17.2566L4.19956 17.0529L4.7489 16.6334L5.33504 16.186L5.48743 16.0695L7.78728 14.3138L7.95701 14.1842L9.15241 13.2717L9.15272 13.2714C9.15272 13.2714 10.4455 15.3778 12.3243 14.7515C14.2032 14.1252 14.1621 12.3293 14.1621 12.3293L19.8572 14.3314Z" fill="#2F2E41"/>
<path d="M6.90737 5.32172C6.90737 5.32172 8.17992 2.56452 10.619 3.2008C13.0581 3.83707 14.4367 4.79149 14.5427 5.74591C14.6487 6.70033 14.4897 8.13195 14.4897 8.13195C14.4897 8.13195 14.2246 6.17009 12.5278 6.59428C10.8311 7.01847 8.17992 6.70033 8.17992 6.70033L7.75574 10.518C7.75574 10.518 7.27853 9.82869 6.7483 10.2529C6.21807 10.6771 5.21063 6.17009 6.90737 5.32172Z" fill="#2F2E41"/>
<path d="M6.5761 19.8278C6.47846 19.7886 6.38153 19.7479 6.28531 19.7059C6.21961 19.6773 6.15391 19.6478 6.08882 19.6173C5.113 19.1648 4.21403 18.5624 3.42456 17.8318C3.7041 17.451 3.93314 17.2573 3.93314 17.2573H5.81202L6.09368 18.2045L6.5761 19.8278Z" fill="#2F2E41"/>
<path d="M18.2116 14.1246L19.8234 14.4093C19.3921 15.392 18.8095 16.301 18.0969 17.1034L18.2116 14.1246Z" fill="#2F2E41"/>
</svg>
