<svg width="24" height="24" viewBox="0 0 24 24" fill="none" xmlns="http://www.w3.org/2000/svg">
<path d="M14.612 1.60106C14.4199 1.4453 14.1977 1.33079 13.9594 1.26469C13.7211 1.19859 13.4717 1.18232 13.2268 1.21689C12.9819 1.25145 12.7467 1.33612 12.536 1.4656C12.3253 1.59509 12.1435 1.76661 12.002 1.96946L8.35161 7.19786H9.81561L12.9836 2.65586C13.0308 2.5881 13.0915 2.5308 13.1618 2.48756C13.2322 2.44432 13.3107 2.41607 13.3925 2.40458C13.4743 2.39309 13.5576 2.39861 13.6371 2.42079C13.7167 2.44296 13.7908 2.48132 13.8548 2.53346L14.8244 3.32066L12.1436 7.19786H13.6028L15.758 4.07786L17.7788 5.71826C17.8966 5.81399 17.9737 5.95077 17.9946 6.10107C18.0155 6.25137 17.9787 6.40401 17.8916 6.52826L17.4236 7.19786H18.8876C19.142 6.82485 19.247 6.36983 19.1816 5.92305C19.1163 5.47628 18.8854 5.07038 18.5348 4.78586L14.6108 1.60106H14.612ZM5.39961 5.99906C4.92222 5.99906 4.46438 6.18871 4.12682 6.52627C3.78925 6.86384 3.59961 7.32167 3.59961 7.79906V17.3991C3.59961 18.1947 3.91568 18.9578 4.47829 19.5204C5.0409 20.083 5.80396 20.3991 6.59961 20.3991H17.9996C18.6361 20.3991 19.2466 20.1462 19.6967 19.6961C20.1468 19.246 20.3996 18.6356 20.3996 17.9991V10.7991C20.3996 10.1625 20.1468 9.5521 19.6967 9.10201C19.2466 8.65192 18.6361 8.39906 17.9996 8.39906H5.39961C5.24048 8.39906 5.08787 8.33585 4.97535 8.22333C4.86282 8.11081 4.79961 7.95819 4.79961 7.79906C4.79961 7.63993 4.86282 7.48732 4.97535 7.3748C5.08787 7.26228 5.24048 7.19906 5.39961 7.19906H7.16241L8.00241 5.99906H5.39961ZM16.1996 14.3991H17.3996C17.5587 14.3991 17.7114 14.4623 17.8239 14.5748C17.9364 14.6873 17.9996 14.8399 17.9996 14.9991C17.9996 15.1582 17.9364 15.3108 17.8239 15.4233C17.7114 15.5359 17.5587 15.5991 17.3996 15.5991H16.1996C16.0405 15.5991 15.8879 15.5359 15.7753 15.4233C15.6628 15.3108 15.5996 15.1582 15.5996 14.9991C15.5996 14.8399 15.6628 14.6873 15.7753 14.5748C15.8879 14.4623 16.0405 14.3991 16.1996 14.3991Z" fill="black" fill-opacity="0.5"/>
</svg>
