<svg width="283" height="283" viewBox="0 0 283 283" fill="none" xmlns="http://www.w3.org/2000/svg">
<path d="M19.04 132.365C19.04 100.005 60.2992 30.8561 118.985 40.2149C161.156 46.9401 143.642 93.6424 221.855 111.044C282.764 124.595 265.299 211.261 179.769 215.962C84.8806 221.176 19.04 193.029 19.04 132.365Z" fill="#F3F5F4"/>
<path d="M221.823 154.425C194.626 176.718 212.95 214.98 223.667 211.445C233.235 208.287 210.092 158.095 175.904 162.058C119.609 168.584 103.752 194.608 65.3915 184.431C26.7642 174.183 19.263 131.294 56.7622 106.816C94.1307 82.4243 34.7007 40.6892 30.0244 54.1543C27.3568 61.8355 56.8556 80.6822 77.9063 62.7496C98.957 44.817 126.832 42.5202 144.34 75.1461C161.848 107.772 197.573 88.4511 220.387 83.9661C243.2 79.4805 280.278 106.512 221.823 154.425Z" stroke="#70927F" stroke-width="0.1415" stroke-miterlimit="10"/>
<path d="M195.974 137.554C217.976 137.554 235.813 119.718 235.813 97.7154C235.813 75.7132 217.976 57.8769 195.974 57.8769C173.972 57.8769 156.136 75.7132 156.136 97.7154C156.136 119.718 173.972 137.554 195.974 137.554Z" fill="white"/>
<path d="M199.201 136.601C221.203 136.601 239.039 118.764 239.039 96.7623C239.039 74.7601 221.203 56.9238 199.201 56.9238C177.199 56.9238 159.362 74.7601 159.362 96.7623C159.362 118.764 177.199 136.601 199.201 136.601Z" fill="#F3F5F4"/>
<path d="M195.974 137.554C217.976 137.554 235.813 119.718 235.813 97.7154C235.813 75.7132 217.976 57.8769 195.974 57.8769C173.972 57.8769 156.136 75.7132 156.136 97.7154C156.136 119.718 173.972 137.554 195.974 137.554Z" stroke="#70927F" stroke-width="0.1415" stroke-miterlimit="10"/>
<mask id="mask0_782_52" style="mask-type:luminance" maskUnits="userSpaceOnUse" x="159" y="56" width="81" height="81">
<path d="M199.202 136.601C221.204 136.601 239.04 118.764 239.04 96.7623C239.04 74.7601 221.204 56.9238 199.202 56.9238C177.2 56.9238 159.363 74.7601 159.363 96.7623C159.363 118.764 177.2 136.601 199.202 136.601Z" fill="white"/>
</mask>
<g mask="url(#mask0_782_52)">
<path d="M188.96 137.554H182.373L182.892 123.112H188.635L188.96 137.554Z" fill="#B14330"/>
<path d="M185.158 98.6317L178.293 122.306L180.651 124.647L178.293 127.494L190.794 128.893L185.158 98.6317Z" fill="#FFB84F"/>
<path d="M188.959 138.072H208.4L215.105 95.7412L204.319 95.0642L192.202 95.7412L185.157 98.6317L188.959 138.072Z" fill="#FFB84F"/>
<path d="M195.487 102.05L204.319 95.0642L201.086 84.3612L191.703 85.5911L195.487 102.05Z" fill="#B14330"/>
<path d="M193.633 93.9883L197.955 88.5971L191.703 85.5911L193.633 93.9883Z" fill="#5F281C"/>
<path d="M185.349 79.8983C184.914 84.8208 186.534 90.8543 191.457 91.289C196.379 91.7243 202.335 85.869 202.77 80.9465C203.205 76.024 205.023 67.8408 198.348 67.2504C188.646 66.3929 185.784 74.9752 185.349 79.8983Z" fill="#B14330"/>
<path d="M194.268 75.5271C194.268 75.5271 194.487 77.2307 196.465 78.2744" stroke="#422E2D" stroke-width="0.566" stroke-miterlimit="10"/>
<path d="M186.82 75.8265C186.82 75.8265 188.094 76.247 189.176 75.5271" stroke="#422E2D" stroke-width="0.566" stroke-miterlimit="10"/>
<path d="M188.443 84.3612C188.443 84.3612 190.734 84.5898 194.135 84.3612C194.135 84.3612 192.405 86.4854 189.842 86.2697C189.253 86.2199 188.443 84.3612 188.443 84.3612Z" fill="white"/>
<path d="M194.135 80.9465C194.518 80.9465 194.828 80.3857 194.828 79.6939C194.828 79.0022 194.518 78.4414 194.135 78.4414C193.753 78.4414 193.442 79.0022 193.442 79.6939C193.442 80.3857 193.753 80.9465 194.135 80.9465Z" fill="#422E2D"/>
<path d="M187.942 80.1733C188.324 80.1733 188.635 79.6126 188.635 78.9208C188.635 78.229 188.324 77.6682 187.942 77.6682C187.559 77.6682 187.249 78.229 187.249 78.9208C187.249 79.6126 187.559 80.1733 187.942 80.1733Z" fill="#422E2D"/>
<path d="M190.131 79.6939C190.131 79.6939 189.603 81.7921 187.133 81.6325C187.133 81.6325 190.259 85.6358 190.131 79.6939Z" fill="#9A2532"/>
<path d="M204.318 82.9518C210.433 75.638 212.761 74.0588 204.318 68.2024C204.318 68.2024 203.493 62.6398 196.231 64.4306C185.037 67.191 187.093 68.2024 186.73 74.3034C186.73 74.3034 192.766 75.0771 197.638 72.2301C197.638 72.2301 197.807 75.6584 199.811 77.4084L199.464 81.0761L204.318 82.9518Z" fill="#422E2D"/>
<path d="M204.318 68.2024C204.318 68.2024 205.054 66.668 204.318 65.0696" stroke="#422E2D" stroke-width="0.566" stroke-miterlimit="10"/>
<path d="M203.824 69.0452C203.824 69.0452 206.483 67.8611 206.705 66.6363" stroke="#422E2D" stroke-width="0.566" stroke-miterlimit="10"/>
<path d="M205.451 83.3276C206.171 81.4223 205.555 79.4241 204.075 78.8644C202.595 78.3047 200.811 79.3956 200.091 81.3008C199.37 83.2061 199.986 85.2044 201.466 85.764C202.946 86.3237 204.73 85.2329 205.451 83.3276Z" fill="#B14330"/>
<path d="M206.071 95.7412L203.825 90.071L191.29 92.9893L194.829 103.666L206.071 95.7412Z" fill="#FFB84F"/>
<path d="M191.703 94.2345L198.723 93.8592L192.202 95.7412L191.703 94.2345Z" fill="#FFD788"/>
<path d="M215.106 95.7412L216.701 127.068L206.838 132.241L206.071 95.7412H215.106Z" fill="#FFB84F"/>
<path d="M202.702 90.6013L199.417 89.5774C199.027 89.4558 198.81 89.0414 198.931 88.652L201.55 80.2509C201.672 79.8615 202.086 79.6441 202.475 79.7653L205.76 80.7892C206.15 80.9109 206.367 81.3252 206.246 81.7146L203.627 90.1157C203.505 90.5057 203.091 90.723 202.702 90.6013Z" fill="#A5BBAA"/>
<path d="M203.596 90.8804L200.146 89.805C199.757 89.6833 199.539 89.269 199.66 88.8796L202.279 80.4784C202.401 80.089 202.815 79.8717 203.205 79.9928L206.655 81.0682C207.045 81.1899 207.262 81.6042 207.141 81.9936L204.522 90.3947C204.401 90.7847 203.986 91.0021 203.596 90.8804Z" fill="#E8DFCF"/>
<path d="M203.394 81.9342C203.681 81.9342 203.914 81.7013 203.914 81.414C203.914 81.1268 203.681 80.8939 203.394 80.8939C203.107 80.8939 202.874 81.1268 202.874 81.414C202.874 81.7013 203.107 81.9342 203.394 81.9342Z" fill="#A5BBAA"/>
<path d="M214.715 125.73L205.23 90.3925L203.789 91.0462C203.789 91.0462 202.445 118.352 208.597 128.772L214.715 125.73Z" fill="#B14330"/>
<path d="M205.231 90.3925L208.048 84.2101C208.048 84.2101 200.631 85.9669 203.79 91.0462L205.231 90.3925Z" fill="#B14330"/>
<path d="M208.048 84.2101L204.745 81.3229C204.745 81.3229 203.583 83.253 207.456 84.5802L208.048 84.2101Z" fill="#B14330"/>
<path d="M203.784 86.6088L205.659 85.3823L203.7 82.9519C203.7 82.9519 203.006 84.2101 204.791 85.487L203.784 86.6088Z" fill="#B14330"/>
<path d="M207.456 84.5802L203.976 81.8216C203.976 81.8216 202.971 83.5784 206.919 84.7976L207.456 84.5802Z" fill="#B14330"/>
<path d="M188.96 138.072L185.158 98.6317L191.291 138.072H188.96Z" fill="#FFD788"/>
</g>
<path d="M117.793 203.454H86.1045V208.106H117.793V203.454Z" fill="#86593E"/>
<path d="M129.904 230.94H125.957L107.371 179.163H111.317L129.904 230.94Z" fill="#B58E67"/>
<path d="M98.0781 230.94H102.024L106.671 179.163H102.724L98.0781 230.94Z" fill="#B58E67"/>
<path d="M74.8447 230.94H78.7909L97.3772 179.163H93.431L74.8447 230.94Z" fill="#B58E67"/>
<path d="M112.602 142.535H79.8416C79.1431 142.535 78.5771 143.101 78.5771 143.799V177.616C78.5771 178.727 79.4777 179.627 80.5887 179.627H115.67V145.602C115.67 143.908 114.296 142.535 112.602 142.535Z" fill="#FFB84F"/>
<path d="M125.818 184.567H94.7217V179.627H125.818C127.182 179.627 128.288 180.733 128.288 182.097C128.288 183.461 127.182 184.567 125.818 184.567Z" fill="#FFB84F"/>
<path d="M81.2431 174.321V144.625C81.2431 143.471 80.307 142.535 79.1523 142.535C77.9977 142.535 77.0615 143.471 77.0615 144.625V174.711C77.0615 180.154 81.4741 184.567 86.9173 184.567H94.1587C95.5227 184.567 96.6287 183.461 96.6287 182.097C96.6287 180.733 95.5227 179.627 94.1587 179.627H86.5505C83.6192 179.627 81.2431 177.251 81.2431 174.321Z" fill="#FFD788"/>
<path d="M114.782 179.163H98.1178C90.3212 179.163 84.7806 171.574 87.1544 164.148L89.9063 155.54L114.346 152.587L114.782 179.163Z" fill="#B7C9B9"/>
<path d="M117.27 120.478L124.295 145.503H117.27L109.881 132.991L117.27 120.478Z" fill="#EFEBDF"/>
<path d="M123.972 144.354L141.988 147.839L141.499 149.34C141.499 149.34 125.512 153.151 117.27 145.503L123.972 144.354Z" fill="#5F281C"/>
<path d="M141.987 147.839L149.737 147.135L147.59 149.068C145.886 150.603 143.333 150.717 141.499 149.34L141.987 147.839Z" fill="#5F281C"/>
<path d="M149.737 147.134L151.144 150.3C151.144 150.3 149.101 150.764 149.136 147.674L149.737 147.134Z" fill="#5F281C"/>
<path d="M148.024 147.546L149.3 150.888C149.3 150.888 146.941 151.152 148.024 147.546Z" fill="#5F281C"/>
<path d="M149.738 147.134L152.372 149.219C152.372 149.219 150.595 150.157 149.555 147.546L149.738 147.134Z" fill="#5F281C"/>
<path d="M145.993 149.383H113.266V151.708H145.993V149.383Z" fill="white"/>
<path d="M117.27 120.478L109.497 117.342H100.321L88.5898 120.83L93.8644 143.119L89.0528 155.149H111.774L110.032 142.562L110.105 142.34C110.521 141.07 111.459 140.062 112.652 139.462C114.684 138.439 115.861 137.061 116.027 135.595C116.101 134.945 116.041 134.195 115.895 133.402C115.232 129.829 115.412 126.149 116.544 122.696L117.27 120.478Z" fill="white"/>
<path d="M113.061 140.141C114.331 139.501 115.454 138.116 115.807 136.459C115.807 136.459 113.021 138.962 103.36 138.062C92.2145 137.023 99.1666 145.259 95.1865 155.149H111.774L110.032 142.562L110.105 142.34C110.521 141.07 111.869 140.742 113.061 140.141Z" fill="#EFEBDF"/>
<path d="M108.085 123.484L100.32 117.343L104.434 109.016H111.411L108.085 123.484Z" fill="#B14330"/>
<path d="M109.714 116.397L105.915 111.658L111.411 109.016L109.714 116.397Z" fill="#5F281C"/>
<path d="M104.043 91.9207C104.043 91.9207 105.865 90.4202 108.145 90.4202C110.135 90.4202 115.248 92.5212 117.149 97.3237C119.05 102.126 119.768 106.188 117.87 111.63L109.478 109.016L104.043 91.9207Z" fill="#422E2D"/>
<path d="M116.996 104.011C117.379 108.338 115.954 113.641 111.627 114.024C107.3 114.407 100.841 109.26 100.459 104.932C100.076 100.605 99.7018 93.4115 105.569 92.8931C114.097 92.1392 116.613 99.6834 116.996 104.011Z" fill="#B14330"/>
<path d="M113.582 100.524C113.582 100.524 114.786 99.8973 115.76 100.742" stroke="#422E2D" stroke-width="0.566" stroke-miterlimit="10"/>
<path d="M99.9103 104.253C99.9103 104.253 110.095 104.137 112.341 95.2482C112.341 95.2482 113.891 95.5142 116.027 97.9123C116.027 97.9123 115.003 92.6599 106.516 92.6599C97.8591 92.6593 99.9103 104.253 99.9103 104.253Z" fill="#422E2D"/>
<path d="M112.184 94.5814C112.184 94.5814 113.861 101.504 102.995 103.811" stroke="#422E2D" stroke-width="0.566" stroke-miterlimit="10"/>
<path d="M104.044 102.642C104.044 102.642 102.371 107.934 104.89 112.962C104.89 112.962 96.617 114.044 91.1619 107.934C91.0278 102.419 93.7831 97.0679 97.2464 93.5094C100.144 90.5323 108.376 89.561 110.464 95.2487C110.464 95.2487 104.788 95.0829 104.044 102.642Z" fill="#422E2D"/>
<path d="M118.678 112.002C118.678 112.002 122.535 101.202 114.108 93.9622" stroke="#422E2D" stroke-width="0.566" stroke-miterlimit="10"/>
<path d="M90.3115 107.136C90.3115 107.136 91.156 90.4202 105.504 91.6479" stroke="#422E2D" stroke-width="0.566" stroke-miterlimit="10"/>
<path d="M114.276 107.934C114.276 107.934 112.262 108.135 109.272 107.934C109.272 107.934 110.793 109.801 113.046 109.612C113.564 109.568 114.276 107.934 114.276 107.934Z" fill="white"/>
<path d="M109.272 104.932C109.608 104.932 109.881 104.44 109.881 103.832C109.881 103.224 109.608 102.731 109.272 102.731C108.936 102.731 108.663 103.224 108.663 103.832C108.663 104.44 108.936 104.932 109.272 104.932Z" fill="#422E2D"/>
<path d="M114.717 104.253C115.054 104.253 115.326 103.76 115.326 103.152C115.326 102.544 115.054 102.051 114.717 102.051C114.381 102.051 114.108 102.544 114.108 103.152C114.108 103.76 114.381 104.253 114.717 104.253Z" fill="#422E2D"/>
<path d="M112.792 103.832C112.792 103.832 113.257 105.676 115.429 105.535C115.429 105.535 112.68 109.055 112.792 103.832Z" fill="#9A2532"/>
<path d="M102.865 109.183C104.166 108.691 104.708 106.934 104.075 105.259C103.441 103.584 101.873 102.625 100.572 103.117C99.2706 103.609 98.7292 105.366 99.3625 107.041C99.9958 108.716 101.564 109.675 102.865 109.183Z" fill="#B14330"/>
<path d="M101.453 97.2388H100.226V103.811H101.453V97.2388Z" fill="#709480"/>
<path d="M100.635 97.2388H99.4072V103.811H100.635V97.2388Z" fill="#B4C6B6"/>
<path d="M102.154 98.7206V95.5386C102.154 94.1785 102.957 92.8257 104.122 92.1233C104.73 91.756 106.454 90.6828 106.454 90.6828C106.454 90.6828 103.463 90.6857 102.134 91.1956L101.784 91.3298C100.379 91.8692 99.4521 93.2185 99.4521 94.7229V98.7206H102.154Z" fill="#709480"/>
<path d="M101.336 98.7206V95.5386C101.336 94.1785 102.095 92.9327 103.303 92.309L106.454 90.6828L105.49 90.6019C104.071 90.4825 102.644 90.6857 101.315 91.1962L100.966 91.3303C99.5609 91.8697 98.6338 93.2191 98.6338 94.7235V98.7212H101.336V98.7206Z" fill="#B4C6B6"/>
<path d="M100.569 108.801C102.488 108.801 104.044 107.245 104.044 105.326C104.044 103.406 102.488 101.851 100.569 101.851C98.6497 101.851 97.0938 103.406 97.0938 105.326C97.0938 107.245 98.6497 108.801 100.569 108.801Z" fill="#B4C6B6"/>
<path d="M99.8844 108.801C101.804 108.801 103.36 107.245 103.36 105.326C103.36 103.406 101.804 101.851 99.8844 101.851C97.9651 101.851 96.4092 103.406 96.4092 105.326C96.4092 107.245 97.9651 108.801 99.8844 108.801Z" fill="#F1EADF"/>
<path d="M99.8843 107.506C101.088 107.506 102.065 106.53 102.065 105.326C102.065 104.122 101.088 103.146 99.8843 103.146C98.6802 103.146 97.7041 104.122 97.7041 105.326C97.7041 106.53 98.6802 107.506 99.8843 107.506Z" fill="#B4C6B6"/>
<path d="M99.8845 106.316C100.431 106.316 100.874 105.873 100.874 105.326C100.874 104.779 100.431 104.336 99.8845 104.336C99.3377 104.336 98.8945 104.779 98.8945 105.326C98.8945 105.873 99.3377 106.316 99.8845 106.316Z" fill="#F1EADF"/>
<path d="M112.244 112.283L103.973 111.332L99.6562 105.495L100.111 105.158L104.282 110.797L112.309 111.721L112.244 112.283Z" fill="#F1EADF"/>
<path d="M112.426 112.569H110.397C110.195 112.569 110.032 112.406 110.032 112.204V111.408C110.032 111.207 110.195 111.044 110.397 111.044H112.426C112.628 111.044 112.791 111.207 112.791 111.408V112.204C112.791 112.406 112.628 112.569 112.426 112.569Z" fill="#B4C6B6"/>
<path d="M94.4549 134.254L92.8712 138.921L91.9316 135.695L94.4549 134.254Z" fill="#EFEBDF"/>
<path d="M88.5894 120.83L78.5791 145.804H86.8489L94.4537 134.254L88.5894 120.83Z" fill="white"/>
<path d="M132.687 151.708H125.514C125.514 149.727 127.119 148.122 129.1 148.122C131.081 148.122 132.687 149.727 132.687 151.708Z" fill="#B7C9B9"/>
<path d="M88.0317 144.009L122.845 147.839L122.356 149.34C122.356 149.34 95.1871 158.62 78.5801 145.804L88.0317 144.009Z" fill="#B1432D"/>
<path d="M122.845 147.839L130.595 147.135L128.447 149.068C126.743 150.602 124.191 150.717 122.356 149.34L122.845 147.839Z" fill="#B1432D"/>
<path d="M130.595 147.134L132.003 150.3C132.003 150.3 129.959 150.764 129.995 147.675L130.595 147.134Z" fill="#B1432D"/>
<path d="M128.881 147.546L130.157 150.888C130.157 150.888 127.799 151.152 128.881 147.546Z" fill="#B1432D"/>
<path d="M130.595 147.134L133.229 149.219C133.229 149.219 131.452 150.157 130.412 147.546L130.595 147.134Z" fill="#B1432D"/>
<path d="M162.843 141.559H130.954C128.958 141.559 127.371 139.881 127.483 137.888L128.729 117.178C128.832 115.336 130.356 113.896 132.2 113.896H164.089C166.085 113.896 167.672 115.574 167.56 117.567L166.314 138.277C166.211 140.119 164.687 141.559 162.843 141.559Z" fill="#70927F"/>
<path d="M164.839 141.559H132.951C130.954 141.559 129.367 139.881 129.479 137.888L130.725 117.178C130.828 115.336 132.352 113.896 134.196 113.896H166.085C168.082 113.896 169.668 115.574 169.556 117.567L168.31 138.277C168.207 140.119 166.684 141.559 164.839 141.559Z" fill="#A5BBAA"/>
<path d="M153.768 133.731H143.817L147.995 149.005C148.132 149.506 147.755 150.001 147.235 150.001H137.525V151.746H148.724H155.369C157.035 151.746 158.244 150.162 157.807 148.555L153.768 133.731ZM153.004 146.259C151.761 146.259 150.754 145.251 150.754 144.009C150.754 142.766 151.761 141.758 153.004 141.758C154.247 141.758 155.255 142.766 155.255 144.009C155.255 145.251 154.247 146.259 153.004 146.259Z" fill="#70927F"/>
<path d="M151.976 127.739H146.278C144.919 127.739 143.817 128.841 143.817 130.2V133.731H154.437V130.2C154.437 128.841 153.335 127.739 151.976 127.739Z" fill="#70927F"/>
<path d="M153.612 127.739H147.914C146.555 127.739 145.453 128.841 145.453 130.2V133.731H156.073V130.2C156.073 128.841 154.971 127.739 153.612 127.739Z" fill="#E3E3E3"/>
<path d="M160.106 148.415L156.106 133.731H145.453L146.052 135.93H146.047L149.804 149.722C150.073 150.709 149.366 151.672 148.367 151.746H148.724H150.36H155.331H157.562C159.3 151.745 160.562 150.092 160.106 148.415ZM153.823 146.259C152.58 146.259 151.572 145.251 151.572 144.009C151.572 142.766 152.58 141.758 153.823 141.758C155.066 141.758 156.073 142.766 156.073 144.009C156.073 145.251 155.066 146.259 153.823 146.259Z" fill="#E3E3E3"/>
<path d="M153.612 127.739H147.914C146.555 127.739 145.453 128.841 145.453 130.2V133.731H156.073V130.2C156.073 128.841 154.971 127.739 153.612 127.739Z" fill="#A5BBAA"/>
<path d="M160.106 148.415L156.106 133.731H145.453L146.052 135.93H146.047L149.804 149.722C150.073 150.709 149.366 151.672 148.367 151.746H148.724H150.36H155.331H157.562C159.3 151.745 160.562 150.092 160.106 148.415ZM153.823 146.259C152.58 146.259 151.572 145.251 151.572 144.009C151.572 142.766 152.58 141.758 153.823 141.758C155.066 141.758 156.073 142.766 156.073 144.009C156.073 145.251 155.066 146.259 153.823 146.259Z" fill="#A5BBAA"/>
<path d="M160.106 148.415L156.106 133.731H156.073V130.2C156.073 128.841 154.971 127.739 153.612 127.739H147.914" stroke="#F3F5F4" stroke-width="0.566" stroke-miterlimit="10" stroke-linecap="round" stroke-linejoin="round"/>
<path d="M156.105 133.731L160.105 148.415C160.562 150.092 159.299 151.745 157.561 151.745" stroke="#F3F5F4" stroke-width="0.566" stroke-miterlimit="10" stroke-linecap="round" stroke-linejoin="round"/>
<path d="M133.722 132.365C133.718 132.365 133.713 132.365 133.708 132.364C133.57 132.357 133.464 132.238 133.472 132.1L134.159 119.858C134.166 119.72 134.283 119.611 134.422 119.622C134.561 119.63 134.666 119.749 134.658 119.886L133.972 132.128C133.965 132.262 133.854 132.365 133.722 132.365Z" fill="#D1CEC7"/>
<path d="M135.354 132.365C135.35 132.365 135.344 132.365 135.34 132.364C135.202 132.357 135.096 132.238 135.104 132.1L135.79 119.858C135.798 119.72 135.913 119.611 136.054 119.622C136.192 119.63 136.298 119.749 136.29 119.886L135.604 132.128C135.596 132.262 135.486 132.365 135.354 132.365Z" fill="#D1CEC7"/>
<path d="M136.985 132.365C136.98 132.365 136.975 132.365 136.971 132.364C136.833 132.357 136.727 132.238 136.735 132.1L137.421 119.858C137.429 119.72 137.542 119.611 137.685 119.622C137.823 119.63 137.929 119.749 137.921 119.886L137.235 132.128C137.227 132.262 137.117 132.365 136.985 132.365Z" fill="#D1CEC7"/>
<path d="M138.618 132.365C138.613 132.365 138.608 132.365 138.604 132.364C138.466 132.357 138.36 132.238 138.368 132.1L139.054 119.858C139.062 119.72 139.182 119.611 139.318 119.622C139.456 119.63 139.562 119.749 139.554 119.886L138.867 132.128C138.861 132.262 138.75 132.365 138.618 132.365Z" fill="#D1CEC7"/>
<path d="M140.25 132.365C140.245 132.365 140.24 132.365 140.235 132.364C140.097 132.357 139.992 132.238 139.999 132.1L140.686 119.858C140.693 119.72 140.812 119.611 140.95 119.622C141.088 119.63 141.194 119.749 141.186 119.886L140.499 132.128C140.492 132.262 140.381 132.365 140.25 132.365Z" fill="#D1CEC7"/>
<path d="M159.181 132.365C159.177 132.365 159.172 132.365 159.167 132.364C159.029 132.357 158.923 132.238 158.931 132.1L159.618 119.858C159.625 119.72 159.744 119.611 159.881 119.622C160.02 119.63 160.125 119.749 160.117 119.886L159.431 132.128C159.423 132.262 159.313 132.365 159.181 132.365Z" fill="#D1CEC7"/>
<path d="M160.812 132.365C160.808 132.365 160.803 132.365 160.798 132.364C160.66 132.357 160.554 132.238 160.562 132.1L161.249 119.858C161.256 119.72 161.373 119.611 161.512 119.622C161.65 119.63 161.756 119.749 161.748 119.886L161.062 132.128C161.054 132.262 160.944 132.365 160.812 132.365Z" fill="#D1CEC7"/>
<path d="M162.444 132.365C162.439 132.365 162.434 132.365 162.43 132.364C162.292 132.357 162.186 132.238 162.194 132.1L162.88 119.858C162.888 119.72 163.004 119.611 163.144 119.622C163.282 119.63 163.388 119.749 163.38 119.886L162.694 132.128C162.686 132.262 162.576 132.365 162.444 132.365Z" fill="#D1CEC7"/>
<path d="M164.076 132.365C164.071 132.365 164.066 132.365 164.062 132.364C163.924 132.357 163.818 132.238 163.826 132.1L164.512 119.858C164.52 119.72 164.634 119.611 164.776 119.622C164.914 119.63 165.02 119.749 165.012 119.886L164.325 132.128C164.318 132.262 164.208 132.365 164.076 132.365Z" fill="#D1CEC7"/>
<path d="M165.708 132.365C165.703 132.365 165.698 132.365 165.693 132.364C165.555 132.357 165.45 132.238 165.457 132.1L166.144 119.858C166.151 119.72 166.272 119.611 166.408 119.622C166.546 119.63 166.652 119.749 166.644 119.886L165.957 132.128C165.95 132.262 165.839 132.365 165.708 132.365Z" fill="#D1CEC7"/>
<path d="M130.561 161.407H119.419L113.921 220.932H115.642C128.571 186.344 132.284 170.783 133.349 164.724C133.654 162.992 132.32 161.407 130.561 161.407Z" fill="#B7C9B9"/>
<path d="M114.132 218.665C114.132 218.665 126.476 186.853 123.297 165.356C123.095 163.987 119.421 161.407 119.421 161.407L114.132 218.665Z" fill="#A5BBAA"/>
<path d="M119.772 161.407H110.311L88.0928 218.665L89.484 220.932C105.496 196.321 120.115 174.479 123.142 166.246C124.007 163.897 122.275 161.407 119.772 161.407Z" fill="#B7C9B9"/>
<path d="M106.67 171.341C101.261 172.666 95.5653 170.786 94.4531 167.396C93.1915 163.551 96.4075 161.407 96.4075 161.407L94.036 155.041L89.9053 155.54L87.1534 164.149C84.7796 171.575 90.3202 179.163 98.1169 179.163H103.42L88.0919 218.666C111.084 182.079 106.67 171.341 106.67 171.341Z" fill="#A5BBAA"/>
<path d="M89.6415 156.369H114.384L114.492 161.407H88.0312L89.6415 156.369Z" fill="#70927F"/>
<path d="M115.643 220.932V228.027L120.086 228.509H114.285L113.922 224.17L111.874 221.484L114.132 218.665L115.643 220.932Z" fill="#B1432D"/>
<path d="M120.085 228.509L119.393 230.94H114.809C114.02 230.94 113.38 230.3 113.38 229.511V224.729L111.036 221.681L114.131 218.665L114.284 228.509H120.085Z" fill="#E8DFCF"/>
<path d="M111.036 221.681V230.94L112.648 222.707L111.036 221.681Z" fill="#E8DFCF"/>
<path d="M89.6065 220.932V228.027L94.0484 228.509H88.2475L87.8853 224.17L85.8369 221.484L88.0947 218.665L89.6065 220.932Z" fill="#B1432D"/>
<path d="M94.0482 228.509L93.356 230.94H88.7714C87.9824 230.94 87.3428 230.3 87.3428 229.511V224.729L84.999 221.681L88.0939 218.665L88.2467 228.509H94.0482Z" fill="#E8DFCF"/>
<path d="M84.999 221.681V230.94L86.611 222.707L84.999 221.681Z" fill="#E8DFCF"/>
<path d="M83.9222 230.94H69.4337C67.1392 230.94 65.2793 229.08 65.2793 226.785V156.369H88.0761V226.785C88.0766 229.079 86.2168 230.94 83.9222 230.94Z" fill="#E8DFCF"/>
<path d="M80.6702 230.94H66.1818C63.8872 230.94 62.0273 229.08 62.0273 226.785V156.369H84.8241V226.785C84.8241 229.079 82.9642 230.94 80.6702 230.94Z" fill="#A5BBAA"/>
<path d="M172.232 230.94H157.743C155.449 230.94 153.589 229.08 153.589 226.785V156.369H176.386V226.785C176.386 229.079 174.526 230.94 172.232 230.94Z" fill="#E8DFCF"/>
<path d="M168.979 230.94H154.49C152.196 230.94 150.336 229.08 150.336 226.785V156.369H173.133V226.785C173.133 229.079 171.273 230.94 168.979 230.94Z" fill="#A5BBAA"/>
<path d="M55.2371 158.888H170.881C172.336 158.888 173.515 157.709 173.515 156.254V154.343C173.515 152.888 172.336 151.709 170.881 151.709H55.2371C53.7825 151.709 52.6035 152.888 52.6035 154.343V156.254C52.6035 157.709 53.7825 158.888 55.2371 158.888Z" fill="#A5BBAA"/>
<path d="M107.618 158.888H188.313C189.768 158.888 190.947 157.709 190.947 156.254V154.343C190.947 152.888 189.768 151.709 188.313 151.709H107.618C106.163 151.709 104.984 152.888 104.984 154.343V156.254C104.984 157.709 106.163 158.888 107.618 158.888Z" fill="#E8DFCF"/>
<path d="M84.8231 158.888H62.0264V163.086H84.8231V158.888Z" fill="#70927F"/>
<path d="M173.133 158.888H150.336V163.086H173.133V158.888Z" fill="#70927F"/>
<path d="M180.728 82.6247L174.907 77.9642H138.061C135.607 77.9642 133.617 75.9748 133.617 73.5206V67.4248C133.617 64.9706 135.607 62.9811 138.061 62.9811H176.284C178.738 62.9811 180.728 64.9706 180.728 67.4248V82.6247Z" fill="white" stroke="#70927F" stroke-width="0.1415" stroke-miterlimit="10"/>
<path d="M138.874 66.6873H164.679" stroke="#70927F" stroke-width="0.1415" stroke-miterlimit="10"/>
<path d="M138.874 70.1149H164.679" stroke="#70927F" stroke-width="0.1415" stroke-miterlimit="10"/>
<path d="M138.874 73.5426H164.679" stroke="#70927F" stroke-width="0.1415" stroke-miterlimit="10"/>
<path d="M123.516 103.464L129.336 98.8038H166.182C168.637 98.8038 170.626 96.8143 170.626 94.3602V88.2643C170.626 85.8102 168.637 83.8207 166.182 83.8207H127.959C125.505 83.8207 123.516 85.8102 123.516 88.2643V103.464Z" fill="white" stroke="#70927F" stroke-width="0.1415" stroke-miterlimit="10"/>
<path d="M165.369 87.5268H139.563" stroke="#70927F" stroke-width="0.1415" stroke-miterlimit="10"/>
<path d="M165.369 90.9545H139.563" stroke="#70927F" stroke-width="0.1415" stroke-miterlimit="10"/>
<path d="M165.369 94.3822H139.563" stroke="#70927F" stroke-width="0.1415" stroke-miterlimit="10"/>
<path d="M215.264 76.1457L215.414 76.1129C217.774 77.5262 219.311 77.4583 220.083 76.2555L220.106 76.2193C220.761 75.1993 220.434 73.9858 219.122 73.1431C217.974 72.4056 216.7 72.3077 215.228 72.675L214.798 70.3397C216.627 69.8161 218.52 69.8738 220.488 71.1377C223.038 72.7757 223.856 75.3086 222.393 77.5856L222.37 77.6218C220.896 79.917 218.571 79.8909 216.326 78.9378L215.208 80.2781L213.732 79.33L215.264 76.1457ZM212.222 80.522L214.663 82.0898L213.049 84.6034L210.607 83.0356L212.222 80.522Z" fill="#A5BBAA"/>
<path d="M58.0057 179.33C54.7206 179.33 52.0576 181.993 52.0576 185.278V223.692C52.0576 224.55 52.7538 225.247 53.6124 225.247H62.399C63.2576 225.247 63.9538 224.55 63.9538 223.692V185.278C63.9538 181.993 61.2908 179.33 58.0057 179.33Z" fill="#E8DFCF"/>
<path d="M63.2692 202.843H59.3542C57.7354 202.843 56.4229 201.531 56.4229 199.912C56.4229 198.293 57.7354 196.98 59.3542 196.98H63.2692C65.4483 196.98 67.221 195.208 67.221 193.029V188.927C67.221 187.308 68.5336 185.996 70.1523 185.996C71.7711 185.996 73.0836 187.308 73.0836 188.927V193.029C73.0836 198.44 68.6807 202.843 63.2692 202.843Z" fill="#E8DFCF"/>
<path d="M57.0574 210.567H52.9551C47.5435 210.567 43.1406 206.164 43.1406 200.752V196.837C43.1406 195.218 44.4532 193.905 46.0719 193.905C47.6907 193.905 49.0033 195.218 49.0033 196.837V200.752C49.0033 202.931 50.776 204.704 52.9551 204.704H57.0574C58.6762 204.704 59.9887 206.016 59.9887 207.635C59.9887 209.254 58.6762 210.567 57.0574 210.567Z" fill="#E8DFCF"/>
<path d="M55.1096 186.005H54.6211V188.044H55.1096V186.005Z" fill="#F3F5F4"/>
<path d="M61.339 182.946H60.8506V184.985H61.339V182.946Z" fill="#F3F5F4"/>
<path d="M57.8683 194.798H57.3799V196.837H57.8683V194.798Z" fill="#F3F5F4"/>
<path d="M59.5988 188.623H59.1104V190.663H59.5988V188.623Z" fill="#F3F5F4"/>
<path d="M62.2678 206.075H61.7793V208.114H62.2678V206.075Z" fill="#F3F5F4"/>
<path d="M68.9299 187.907H68.4414V189.946H68.9299V187.907Z" fill="#F3F5F4"/>
<path d="M55.1096 201.268H54.6211V203.308H55.1096V201.268Z" fill="#F3F5F4"/>
<path d="M55.6183 209.979H55.1299V212.018H55.6183V209.979Z" fill="#F3F5F4"/>
<path d="M60.2062 200.803H59.7178V202.842H60.2062V200.803Z" fill="#F3F5F4"/>
<path d="M45.3459 201.216H44.8574V203.256H45.3459V201.216Z" fill="#F3F5F4"/>
<path d="M47.6877 197.411H47.1992V199.45H47.6877V197.411Z" fill="#F3F5F4"/>
<path d="M48.7648 203.256H48.2764V205.295H48.7648V203.256Z" fill="#F3F5F4"/>
<path d="M62.6994 193.029H62.2109V195.068H62.6994V193.029Z" fill="#F3F5F4"/>
<path d="M69.9494 195.817H69.4609V197.856H69.9494V195.817Z" fill="#F3F5F4"/>
<path d="M68.0852 213.964H48.14C47.6011 213.964 47.1857 214.439 47.257 214.972L49.3235 230.443C49.5346 232.023 50.8828 233.203 52.4772 233.203H64.0916C65.7126 233.203 67.0744 231.985 67.2538 230.373L68.9705 214.953C69.0293 214.426 68.6162 213.964 68.0852 213.964Z" fill="#F3F5F4"/>
<path d="M68.0434 223.288L68.3926 220.153H47.9492L48.3681 223.288H68.0434Z" fill="#70927F"/>
<path d="M48.3316 139.201C51.0637 139.201 53.2784 136.986 53.2784 134.254C53.2784 131.522 51.0637 129.307 48.3316 129.307C45.5995 129.307 43.3848 131.522 43.3848 134.254C43.3848 136.986 45.5995 139.201 48.3316 139.201Z" fill="#F3F5F4" stroke="#70927F" stroke-width="0.1415" stroke-miterlimit="10"/>
<path d="M202.696 150.751C205.428 150.751 207.643 148.536 207.643 145.804C207.643 143.072 205.428 140.857 202.696 140.857C199.964 140.857 197.749 143.072 197.749 145.804C197.749 148.536 199.964 150.751 202.696 150.751Z" fill="#F3F5F4" stroke="#70927F" stroke-width="0.1415" stroke-miterlimit="10"/>
<path d="M197.04 179.672C198.406 179.672 199.513 178.564 199.513 177.198C199.513 175.832 198.406 174.725 197.04 174.725C195.674 174.725 194.566 175.832 194.566 177.198C194.566 178.564 195.674 179.672 197.04 179.672Z" fill="#F3F5F4" stroke="#70927F" stroke-width="0.1415" stroke-miterlimit="10"/>
<path d="M230.947 100.005L229.043 107.835L223.117 101.909L230.947 100.005Z" fill="#F3F5F4" stroke="#70927F" stroke-width="0.1415" stroke-miterlimit="10"/>
<path d="M98.8675 77.9218L91.9844 82.1119V73.7317L98.8675 77.9218Z" fill="#F3F5F4" stroke="#70927F" stroke-width="0.1415" stroke-miterlimit="10"/>
<path d="M231.434 174.725L224.551 178.915V170.535L231.434 174.725Z" fill="#F3F5F4" stroke="#70927F" stroke-width="0.1415" stroke-miterlimit="10"/>
<path d="M238.992 159.438H206.314C204.316 159.438 202.695 157.817 202.695 155.819V149.355C202.695 147.356 204.316 145.736 206.314 145.736H238.992C240.99 145.736 242.611 147.356 242.611 149.355V155.819C242.611 157.817 240.991 159.438 238.992 159.438Z" fill="white" stroke="#70927F" stroke-width="0.1415" stroke-miterlimit="10"/>
<path d="M235.555 149.159H209.75" stroke="#70927F" stroke-width="0.1415" stroke-miterlimit="10"/>
<path d="M235.555 152.587H209.75" stroke="#70927F" stroke-width="0.1415" stroke-miterlimit="10"/>
<path d="M235.555 156.015H209.75" stroke="#70927F" stroke-width="0.1415" stroke-miterlimit="10"/>
<path d="M77.6767 115.515H44.9999C43.0013 115.515 41.3809 113.894 41.3809 111.896V105.432C41.3809 103.434 43.0013 101.813 44.9999 101.813H77.6773C79.6759 101.813 81.2963 103.434 81.2963 105.432V111.896C81.2958 113.894 79.6759 115.515 77.6767 115.515Z" fill="white" stroke="#70927F" stroke-width="0.1415" stroke-miterlimit="10"/>
<path d="M74.2401 105.236H48.4355" stroke="#70927F" stroke-width="0.1415" stroke-miterlimit="10"/>
<path d="M74.2401 108.664H48.4355" stroke="#70927F" stroke-width="0.1415" stroke-miterlimit="10"/>
<path d="M74.2401 112.092H48.4355" stroke="#70927F" stroke-width="0.1415" stroke-miterlimit="10"/>
</svg>
