<svg width="57" height="25" viewBox="0 0 57 25" fill="none" xmlns="http://www.w3.org/2000/svg">
<path d="M12.5 0.5H44.5C51.1274 0.5 56.5 5.87258 56.5 12.5C56.5 19.1274 51.1274 24.5 44.5 24.5H12.5C5.87258 24.5 0.5 19.1274 0.5 12.5C0.5 5.87258 5.87258 0.5 12.5 0.5Z" stroke="#9BC327"/>
<path d="M14.0568 17V8.27273H19.3239V9.21023H15.1136V12.1591H19.0511V13.0966H15.1136V16.0625H19.392V17H14.0568ZM23.5639 17.1364C23.0185 17.1364 22.5369 16.9986 22.1193 16.723C21.7017 16.4446 21.375 16.0526 21.1392 15.5469C20.9034 15.0384 20.7855 14.4375 20.7855 13.7443C20.7855 13.0568 20.9034 12.4602 21.1392 11.9545C21.375 11.4489 21.7031 11.0582 22.1236 10.7827C22.544 10.5071 23.0298 10.3693 23.581 10.3693C24.0071 10.3693 24.3438 10.4403 24.5909 10.5824C24.8409 10.7216 25.0313 10.8807 25.1619 11.0597C25.2955 11.2358 25.3991 11.3807 25.473 11.4943H25.5582V8.27273H26.5639V17H25.5923V15.9943H25.473C25.3991 16.1136 25.294 16.2642 25.1577 16.446C25.0213 16.625 24.8267 16.7855 24.5739 16.9276C24.321 17.0668 23.9844 17.1364 23.5639 17.1364ZM23.7003 16.233C24.1037 16.233 24.4446 16.1278 24.723 15.9176C25.0014 15.7045 25.2131 15.4105 25.358 15.0355C25.5028 14.6577 25.5753 14.2216 25.5753 13.7273C25.5753 13.2386 25.5043 12.8111 25.3622 12.4446C25.2202 12.0753 25.0099 11.7884 24.7315 11.5838C24.4531 11.3764 24.1094 11.2727 23.7003 11.2727C23.2741 11.2727 22.919 11.3821 22.6349 11.6009C22.3537 11.8168 22.142 12.1108 22 12.483C21.8608 12.8523 21.7912 13.267 21.7912 13.7273C21.7912 14.1932 21.8622 14.6165 22.0043 14.9972C22.1491 15.375 22.3622 15.6761 22.6435 15.9006C22.9276 16.1222 23.2798 16.233 23.7003 16.233ZM28.5455 17V10.4545H29.5511V17H28.5455ZM29.0568 9.36364C28.8608 9.36364 28.6918 9.29688 28.5497 9.16335C28.4105 9.02983 28.3409 8.86932 28.3409 8.68182C28.3409 8.49432 28.4105 8.33381 28.5497 8.20028C28.6918 8.06676 28.8608 8 29.0568 8C29.2528 8 29.4205 8.06676 29.5597 8.20028C29.7017 8.33381 29.7727 8.49432 29.7727 8.68182C29.7727 8.86932 29.7017 9.02983 29.5597 9.16335C29.4205 9.29688 29.2528 9.36364 29.0568 9.36364ZM34.2397 10.4545V11.3068H30.8477V10.4545H34.2397ZM31.8363 8.88636H32.842V15.125C32.842 15.4091 32.8832 15.6222 32.9656 15.7642C33.0508 15.9034 33.1587 15.9972 33.2894 16.0455C33.4229 16.0909 33.5636 16.1136 33.7113 16.1136C33.8221 16.1136 33.913 16.108 33.984 16.0966C34.055 16.0824 34.1119 16.071 34.1545 16.0625L34.359 16.9659C34.2908 16.9915 34.1957 17.017 34.0735 17.0426C33.9513 17.071 33.7965 17.0852 33.609 17.0852C33.3249 17.0852 33.0465 17.0241 32.7738 16.902C32.5039 16.7798 32.2795 16.5938 32.1005 16.3438C31.9244 16.0938 31.8363 15.7784 31.8363 15.3977V8.88636Z" fill="#9BC327"/>
<path d="M47.6789 10.7476L42.1072 16.5388L40.2263 14.7292L45.689 9.05185" fill="#9BC327"/>
<path d="M45.979 8.81155C45.979 8.81155 46.471 8.16458 46.7094 8.05229C47.4275 7.71399 49.0018 9.09879 48.5902 9.86165C48.4838 10.0589 47.9689 10.5073 47.9689 10.5073" fill="#9BC327"/>
<path d="M40.0096 15.0609L41.7866 16.8568L40 16.8469L40.0096 15.0609Z" fill="#9BC327"/>
</svg>
