<svg width="23" height="18" viewBox="0 0 23 18" fill="none" xmlns="http://www.w3.org/2000/svg">
<path d="M23 9.00597C22.9944 7.90159 22.5526 6.84417 21.7704 6.06443C20.9884 5.28469 19.9297 4.84595 18.8254 4.84373H15.3029C15.5507 2.27953 13.7711 0.016517 11.1283 0H4.87641C3.76925 0 2.70745 0.439838 1.92454 1.22273C1.14163 2.00564 0.70181 3.06744 0.70181 4.1746V6.23923C0.693146 7.25715 1.06072 8.24246 1.73412 9.00583L1.04876 11.8509C1.01484 12.006 1.07273 12.1665 1.19771 12.2644C1.32287 12.3621 1.49284 12.3795 1.63496 12.3092L4.8311 10.4181H8.41118V11.0911C8.41229 12.1962 8.85139 13.2556 9.63245 14.0375C10.4135 14.8192 11.4725 15.2595 12.5775 15.2617H18.887L22.0748 17.1322C22.2138 17.2009 22.3793 17.1862 22.504 17.0938C22.6284 17.0017 22.6907 16.8474 22.6654 16.6946L21.9801 13.833H21.9799C22.6432 13.0741 23.0059 12.0989 22.9998 11.0911L23 9.00597ZM4.83125 9.61705C4.73207 9.60175 4.63069 9.61926 4.5422 9.66664L2.06465 11.1285L2.58083 8.96891V8.96873C2.61106 8.83619 2.57401 8.69719 2.48165 8.5971C1.86595 7.96869 1.52197 7.12331 1.52381 6.24342V4.1788C1.52492 3.28343 1.88106 2.42479 2.51426 1.79157C3.14748 1.15854 4.00594 0.802202 4.90149 0.801117H11.1284C12.024 0.802223 12.8824 1.15855 13.5156 1.79157C14.1488 2.42479 14.505 3.28343 14.5061 4.1788V6.24342C14.505 7.13897 14.1488 7.99743 13.5156 8.63065C12.8824 9.26386 12.024 9.6202 11.1284 9.62129C10.9592 9.61705 4.99257 9.6294 4.83117 9.61705L4.83125 9.61705ZM22.2237 11.0912C22.2259 11.9692 21.8834 12.8129 21.2697 13.4408C21.176 13.54 21.1373 13.679 21.1665 13.8125L21.6866 15.972L19.2091 14.5144H19.2093C19.1177 14.4674 19.0137 14.4501 18.9119 14.4648H12.5694C11.675 14.4637 10.8174 14.108 10.1851 13.4755C9.55269 12.843 9.19691 11.9856 9.19578 11.0912V10.4182H11.1282C12.3395 10.4051 13.4878 9.87604 14.2849 8.96374C15.082 8.05162 15.4523 6.84272 15.3028 5.64061H18.8252C19.7186 5.64172 20.5752 5.99621 21.208 6.62668C21.8409 7.2573 22.1985 8.11264 22.2029 9.00598L22.2237 11.0912Z" fill="black" fill-opacity="0.5"/>
<path d="M7.49476 1.92441C7.08847 1.92441 6.69878 2.08589 6.41158 2.3731C6.12419 2.66048 5.96289 3.05001 5.96289 3.45628C6.01174 3.6362 6.17488 3.761 6.36125 3.761C6.54762 3.761 6.71095 3.6362 6.7598 3.45628C6.77842 3.20761 6.92202 2.98529 7.1412 2.86582C7.36038 2.74656 7.6251 2.74656 7.84412 2.86582C8.0633 2.98527 8.2069 3.20759 8.2257 3.45628C8.2587 3.69353 8.19639 3.9341 8.05223 4.12527C7.47008 4.56289 7.37919 5.43426 7.42454 6.16922C7.47597 6.34545 7.63746 6.46657 7.82106 6.46657C8.00448 6.46657 8.16596 6.34545 8.21739 6.16922C8.21739 5.71906 8.18015 5.00473 8.56008 4.7406C9.49745 3.87345 8.98534 1.90379 7.49476 1.92441Z" fill="black" fill-opacity="0.5"/>
<path d="M7.82067 6.97438C7.56978 6.97438 7.36646 7.17771 7.36646 7.4286C7.36646 7.67949 7.56978 7.88282 7.82067 7.88282C8.07138 7.88282 8.27489 7.67949 8.27489 7.4286C8.27489 7.17771 8.07138 6.97438 7.82067 6.97438Z" fill="black" fill-opacity="0.5"/>
<path d="M16.2691 7.66809H20.3983C20.5781 7.61924 20.703 7.4561 20.703 7.26973C20.703 7.08336 20.5781 6.92003 20.3983 6.87119H16.2691C16.0893 6.92004 15.9644 7.08336 15.9644 7.26973C15.9644 7.4561 16.0893 7.61924 16.2691 7.66809Z" fill="black" fill-opacity="0.5"/>
<path d="M20.6791 8.59305H15.4144C15.2347 8.6419 15.1099 8.80523 15.1099 8.99159C15.1099 9.17778 15.2347 9.3411 15.4144 9.38996H20.6791C20.859 9.3411 20.9838 9.17778 20.9838 8.99159C20.9838 8.80523 20.859 8.6419 20.6791 8.59305Z" fill="black" fill-opacity="0.5"/>
<path d="M20.6792 10.3439H13.961C13.7813 10.3927 13.6565 10.5559 13.6565 10.7422C13.6565 10.9286 13.7813 11.0919 13.961 11.1408H20.6792C20.8591 11.0919 20.9839 10.9286 20.9839 10.7422C20.9839 10.5559 20.8591 10.3927 20.6792 10.3439Z" fill="black" fill-opacity="0.5"/>
<path d="M20.679 12.0824H11.2893C11.1094 12.1312 10.9846 12.2945 10.9846 12.4809C10.9846 12.6671 11.1094 12.8304 11.2893 12.8793H20.679C20.8589 12.8304 20.9837 12.6671 20.9837 12.4809C20.9837 12.2945 20.8589 12.1312 20.679 12.0824Z" fill="black" fill-opacity="0.5"/>
</svg>
