<svg width="20" height="21" viewBox="0 0 20 21" fill="none" xmlns="http://www.w3.org/2000/svg">
<path d="M18.1794 10.4996H16.2627C16.0086 10.4996 15.7648 10.6006 15.5851 10.7803C15.4054 10.96 15.3044 11.2038 15.3044 11.458C15.3044 11.7121 15.4054 11.9559 15.5851 12.1356C15.7648 12.3153 16.0086 12.4163 16.2627 12.4163V14.333H15.1261C15.24 14.0261 15.3 13.7019 15.3034 13.3746C15.3034 12.7418 15.0946 12.1266 14.7093 11.6245C14.324 11.1224 13.7839 10.7615 13.1726 10.5977C12.5613 10.4339 11.913 10.4764 11.3283 10.7186C10.7436 10.9607 10.2551 11.3891 9.93869 11.9371C9.87477 12.0462 9.83305 12.1667 9.81593 12.292C9.79881 12.4172 9.80662 12.5446 9.83893 12.6667C9.87123 12.7889 9.92739 12.9035 10.0042 13.0039C10.0809 13.1043 10.1768 13.1885 10.2863 13.2517C10.3957 13.3149 10.5166 13.3558 10.6419 13.3721C10.7672 13.3884 10.8945 13.3798 11.0165 13.3466C11.1385 13.3135 11.2527 13.2566 11.3526 13.1792C11.4525 13.1018 11.5361 13.0053 11.5985 12.8955C11.6826 12.7498 11.8036 12.6288 11.9493 12.5447C12.095 12.4606 12.2602 12.4163 12.4284 12.4163C12.6826 12.4163 12.9264 12.5173 13.1061 12.697C13.2858 12.8767 13.3868 13.1205 13.3868 13.3746C13.3868 13.6288 13.2858 13.8725 13.1061 14.0523C12.9264 14.232 12.6826 14.333 12.4284 14.333C12.1743 14.333 11.9305 14.4339 11.7508 14.6136C11.5711 14.7934 11.4701 15.0371 11.4701 15.2913C11.4701 15.5455 11.5711 15.7892 11.7508 15.9689C11.9305 16.1487 12.1743 16.2496 12.4284 16.2496C12.6826 16.2496 12.9264 16.3506 13.1061 16.5303C13.2858 16.71 13.3868 16.9538 13.3868 17.208C13.3868 17.4621 13.2858 17.7059 13.1061 17.8856C12.9264 18.0653 12.6826 18.1663 12.4284 18.1663C12.2602 18.1663 12.095 18.122 11.9493 18.0379C11.8036 17.9538 11.6826 17.8328 11.5985 17.6871C11.5361 17.5773 11.4525 17.4808 11.3526 17.4034C11.2527 17.326 11.1385 17.269 11.0165 17.2359C10.8945 17.2028 10.7672 17.1942 10.6419 17.2104C10.5166 17.2267 10.3957 17.2677 10.2863 17.3308C10.1768 17.394 10.0809 17.4783 10.0042 17.5787C9.92739 17.6791 9.87123 17.7936 9.83893 17.9158C9.80662 18.038 9.79881 18.1654 9.81593 18.2906C9.83305 18.4158 9.87477 18.5364 9.93869 18.6455C10.2551 19.1935 10.7436 19.6218 11.3283 19.864C11.913 20.1062 12.5613 20.1487 13.1726 19.9849C13.7839 19.8211 14.324 19.4601 14.7093 18.9581C15.0946 18.456 15.3034 17.8408 15.3034 17.208C15.3 16.8807 15.24 16.5565 15.1261 16.2496H16.2618V19.1246C16.2618 19.3788 16.3627 19.6225 16.5425 19.8023C16.7222 19.982 16.9659 20.083 17.2201 20.083C17.4743 20.083 17.718 19.982 17.8977 19.8023C18.0775 19.6225 18.1784 19.3788 18.1784 19.1246V12.4163C18.4326 12.4163 18.6764 12.3153 18.8561 12.1356C19.0358 11.9559 19.1368 11.7121 19.1368 11.458C19.1368 11.2038 19.0358 10.96 18.8561 10.7803C18.6764 10.6006 18.4336 10.4996 18.1794 10.4996ZM6.70815 9.77416C6.73799 9.89702 6.79185 10.0127 6.86662 10.1147C6.94139 10.2166 7.03559 10.3028 7.1438 10.3682C7.25201 10.4335 7.37209 10.4769 7.49711 10.4956C7.62213 10.5144 7.74964 10.5083 7.87227 10.4775C7.99491 10.4468 8.11026 10.3921 8.21167 10.3166C8.31308 10.2411 8.39854 10.1463 8.46315 10.0376C8.52776 9.92898 8.57022 9.80859 8.5881 9.68344C8.60597 9.55828 8.59891 9.43083 8.56731 9.30841L6.88352 2.57133C6.76574 2.09809 6.49302 1.67786 6.10878 1.37753C5.72455 1.07721 5.25089 0.914063 4.76321 0.914062C4.27553 0.914063 3.80187 1.07721 3.41764 1.37753C3.0334 1.67786 2.76068 2.09809 2.6429 2.57133L0.958148 9.30841C0.92655 9.43083 0.919487 9.55828 0.937364 9.68344C0.955241 9.80859 0.997705 9.92898 1.06231 10.0376C1.12692 10.1463 1.21239 10.2411 1.3138 10.3166C1.4152 10.3921 1.53055 10.4468 1.65319 10.4775C1.77582 10.5083 1.90333 10.5144 2.02835 10.4956C2.15338 10.4769 2.27345 10.4335 2.38166 10.3682C2.48987 10.3028 2.58407 10.2166 2.65884 10.1147C2.73361 10.0127 2.78747 9.89702 2.81731 9.77416L3.35302 7.62462H6.17052L6.70815 9.77416ZM3.83315 5.70796L4.50111 3.03708C4.52125 2.984 4.55707 2.9383 4.60379 2.90606C4.65052 2.87381 4.70596 2.85654 4.76273 2.85654C4.81951 2.85654 4.87494 2.87381 4.92167 2.90606C4.9684 2.9383 5.00421 2.984 5.02436 3.03708L5.69231 5.70796H3.83315ZM11.4711 5.70796H12.4294C12.6835 5.70821 12.9271 5.80926 13.1068 5.98893C13.2864 6.16859 13.3875 6.4122 13.3877 6.66629V7.62462C13.3877 7.87879 13.4887 8.12254 13.6684 8.30227C13.8481 8.48199 14.0919 8.58296 14.3461 8.58296C14.6002 8.58296 14.844 8.48199 15.0237 8.30227C15.2034 8.12254 15.3044 7.87879 15.3044 7.62462V6.66629C15.3036 5.90403 15.0005 5.1732 14.4615 4.6342C13.9225 4.0952 13.1917 3.79205 12.4294 3.79129H11.4711C11.2169 3.79129 10.9731 3.89226 10.7934 4.07198C10.6137 4.2517 10.5127 4.49546 10.5127 4.74962C10.5127 5.00379 10.6137 5.24754 10.7934 5.42727C10.9731 5.60699 11.2169 5.70796 11.4711 5.70796ZM7.63773 14.333H6.6794C6.42531 14.3327 6.1817 14.2317 6.00203 14.052C5.82237 13.8723 5.72132 13.6287 5.72106 13.3746V12.4163C5.72106 12.1621 5.6201 11.9184 5.44037 11.7386C5.26065 11.5589 5.0169 11.458 4.76273 11.458C4.50856 11.458 4.26481 11.5589 4.08509 11.7386C3.90536 11.9184 3.8044 12.1621 3.8044 12.4163V13.3746C3.80516 14.1369 4.1083 14.8677 4.64731 15.4067C5.18631 15.9457 5.91713 16.2489 6.6794 16.2496H7.63773C7.8919 16.2496 8.13565 16.1487 8.31537 15.9689C8.4951 15.7892 8.59606 15.5455 8.59606 15.2913C8.59606 15.0371 8.4951 14.7934 8.31537 14.6136C8.13565 14.4339 7.8919 14.333 7.63773 14.333Z" fill="#7F7F7F"/>
</svg>
