<svg width="15" height="15" viewBox="0 0 15 15" fill="none" xmlns="http://www.w3.org/2000/svg">
<path fill-rule="evenodd" clip-rule="evenodd" d="M13.0302 7.5H4.03846C3.71999 7.5 3.46154 7.24155 3.46154 6.92308C3.46154 6.60461 3.71999 6.34615 4.03846 6.34615H8.07693V0.576923C8.07693 0.258455 7.81847 0 7.5 0H0.576923C0.258455 0 0 0.258455 0 0.576923V14.4231C0 14.7415 0.258455 15 0.576923 15H7.5C7.81847 15 8.07693 14.7415 8.07693 14.4231V8.65385H13.0302L10.5536 11.1306C10.3285 11.3556 10.3285 11.7213 10.5536 11.9463C10.7785 12.1714 11.1443 12.1714 11.3692 11.9463L14.8308 8.48476C15.0564 8.25979 15.0564 7.89406 14.8308 7.66909L11.3692 4.20755C11.1443 3.98245 10.7785 3.98245 10.5536 4.20755C10.3285 4.43252 10.3285 4.79825 10.5536 5.02322L13.0302 7.5Z" fill="black" fill-opacity="0.5"/>
</svg>
