<svg width="24" height="24" viewBox="0 0 24 24" fill="none" xmlns="http://www.w3.org/2000/svg">
<path d="M4.51209 15.8905C6.14758 15.8905 7.47341 14.6576 7.47341 13.1368C7.47341 11.616 6.14758 10.3831 4.51209 10.3831C2.87661 10.3831 1.55078 11.616 1.55078 13.1368C1.55078 14.6576 2.87661 15.8905 4.51209 15.8905Z" fill="black" fill-opacity="0.5"/>
<path d="M8.28853 18.0379C7.74517 17.2042 6.73996 16.6484 5.5989 16.6484H3.39829C1.82255 16.6484 0.491317 17.76 0.301141 19.2253L0.00229276 21.6C-0.0248752 21.9032 0.192469 22.2063 0.491317 22.2568C1.76821 22.5095 3.09944 22.6358 4.51218 22.6358C5.21855 22.6358 5.89775 22.6105 6.57695 22.5347L6.84863 20.4884C6.98447 19.4779 7.52783 18.6189 8.28853 18.0379Z" fill="black" fill-opacity="0.5"/>
<path d="M19.4545 15.8905C21.09 15.8905 22.4158 14.6576 22.4158 13.1368C22.4158 11.616 21.09 10.3831 19.4545 10.3831C17.819 10.3831 16.4932 11.616 16.4932 13.1368C16.4932 14.6576 17.819 15.8905 19.4545 15.8905Z" fill="black" fill-opacity="0.5"/>
<path d="M23.6658 19.2C23.4756 17.7347 22.1444 16.6232 20.5686 16.6232H18.368C17.2541 16.6232 16.2489 17.179 15.7056 18.0126C16.4663 18.6189 17.0096 19.4779 17.1455 20.4632L17.4172 22.5095C18.0964 22.5853 18.7756 22.6105 19.4819 22.6105C20.8947 22.6105 22.2259 22.4842 23.5028 22.2316C23.8288 22.1558 24.0461 21.8779 23.9918 21.5747L23.6658 19.2Z" fill="black" fill-opacity="0.5"/>
<path d="M13.0701 18.0126H10.8966C9.32087 18.0126 7.98964 19.1242 7.79946 20.5895L7.50061 22.9642C7.47345 23.2674 7.66362 23.5705 7.98964 23.6211C9.26653 23.8737 10.5978 24 12.0105 24C13.4232 24 14.7273 23.8737 16.0042 23.6211C16.3302 23.5453 16.5476 23.2674 16.4932 22.9642L16.1944 20.5895C16.0042 19.1242 14.673 18.0126 13.0701 18.0126Z" fill="black" fill-opacity="0.5"/>
<path d="M11.9833 17.28C13.6188 17.28 14.9446 16.0471 14.9446 14.5263C14.9446 13.0055 13.6188 11.7726 11.9833 11.7726C10.3478 11.7726 9.02197 13.0055 9.02197 14.5263C9.02197 16.0471 10.3478 17.28 11.9833 17.28Z" fill="black" fill-opacity="0.5"/>
<path d="M5.57183 8.89263H18.368C18.9657 8.89263 19.4547 8.43789 19.4547 7.8821V1.01053C19.4547 0.454737 18.9657 0 18.368 0H5.57183C4.97413 0 4.48511 0.454737 4.48511 1.01053V7.8821C4.48511 8.43789 4.97413 8.89263 5.57183 8.89263ZM13.3147 1.81895H17.1182C17.3627 1.81895 17.5529 1.99579 17.5529 2.22316C17.5529 2.45053 17.3627 2.62737 17.1182 2.62737H13.3147C13.0702 2.62737 12.88 2.45053 12.88 2.22316C12.88 1.99579 13.0702 1.81895 13.3147 1.81895ZM13.3147 4.0421H17.1182C17.3627 4.0421 17.5529 4.21895 17.5529 4.44631C17.5529 4.67368 17.3627 4.85052 17.1182 4.85052H13.3147C13.0702 4.85052 12.88 4.67368 12.88 4.44631C12.88 4.21895 13.0702 4.0421 13.3147 4.0421ZM13.3147 6.26526H17.1182C17.3627 6.26526 17.5529 6.4421 17.5529 6.66947C17.5529 6.89684 17.3627 7.07368 17.1182 7.07368H13.3147C13.0702 7.07368 12.88 6.89684 12.88 6.66947C12.88 6.4421 13.0702 6.26526 13.3147 6.26526ZM6.54988 3.5621L7.90828 3.46105C8.04412 3.46105 8.15279 3.38526 8.17996 3.25895L8.69615 2.07158C8.80482 1.81895 9.21234 1.81895 9.32101 2.07158L9.8372 3.25895C9.89154 3.36 10.0002 3.43579 10.1089 3.46105L11.4673 3.5621C11.7661 3.58737 11.8748 3.94105 11.6575 4.11789L10.6794 4.92631C10.5979 5.0021 10.5436 5.12842 10.5707 5.22947L10.8968 6.46737C10.9783 6.74526 10.6522 6.94736 10.4077 6.79579L9.23951 6.13894C9.13084 6.08842 8.995 6.08842 8.88632 6.13894L7.7181 6.79579C7.47359 6.94736 7.14757 6.72 7.22908 6.46737L7.55509 5.22947C7.58226 5.12842 7.55509 5.0021 7.44642 4.92631L6.41404 4.09263C6.14236 3.91579 6.25103 3.58737 6.54988 3.5621Z" fill="black" fill-opacity="0.5"/>
</svg>
