<svg width="24" height="24" viewBox="0 0 24 24" fill="none" xmlns="http://www.w3.org/2000/svg">
<path fill-rule="evenodd" clip-rule="evenodd" d="M6.00039 10.7998C6.63691 10.7998 7.24736 10.5469 7.69745 10.0969C8.14753 9.64677 8.40039 9.03632 8.40039 8.3998C8.40039 7.76329 8.14753 7.15284 7.69745 6.70275C7.24736 6.25266 6.63691 5.9998 6.00039 5.9998C5.36387 5.9998 4.75342 6.25266 4.30333 6.70275C3.85325 7.15284 3.60039 7.76329 3.60039 8.3998C3.60039 9.03632 3.85325 9.64677 4.30333 10.0969C4.75342 10.5469 5.36387 10.7998 6.00039 10.7998ZM6.00039 11.9998C6.47315 11.9998 6.94128 11.9067 7.37805 11.7258C7.81482 11.5449 8.21168 11.2797 8.54598 10.9454C8.88027 10.6111 9.14544 10.2142 9.32636 9.77747C9.50727 9.34069 9.60039 8.87256 9.60039 8.3998C9.60039 7.92705 9.50727 7.45892 9.32636 7.02214C9.14544 6.58537 8.88027 6.18851 8.54598 5.85422C8.21168 5.51993 7.81482 5.25476 7.37805 5.07384C6.94128 4.89292 6.47315 4.7998 6.00039 4.7998C5.04561 4.7998 4.12994 5.17909 3.45481 5.85422C2.77968 6.52935 2.40039 7.44503 2.40039 8.3998C2.40039 9.35458 2.77968 10.2703 3.45481 10.9454C4.12994 11.6205 5.04561 11.9998 6.00039 11.9998Z" fill="#9BC327"/>
<path fill-rule="evenodd" clip-rule="evenodd" d="M4.62558 10.6749C4.68146 10.7307 4.72579 10.7969 4.75604 10.8698C4.78628 10.9427 4.80185 11.0208 4.80185 11.0997C4.80185 11.1787 4.78628 11.2568 4.75604 11.3297C4.72579 11.4026 4.68146 11.4688 4.62558 11.5245L4.21998 11.9289C3.43942 12.7097 3.00088 13.7685 3.00078 14.8725V17.0997C3.00078 17.2589 2.93757 17.4115 2.82505 17.524C2.71252 17.6365 2.55991 17.6997 2.40078 17.6997C2.24165 17.6997 2.08904 17.6365 1.97652 17.524C1.864 17.4115 1.80078 17.2589 1.80078 17.0997V14.8725C1.80095 13.4503 2.36596 12.0863 3.37158 11.0805L3.77598 10.6749C3.83172 10.6191 3.89793 10.5747 3.97082 10.5445C4.04372 10.5142 4.12186 10.4987 4.20078 10.4987C4.2797 10.4987 4.35785 10.5142 4.43074 10.5445C4.50364 10.5747 4.56985 10.6191 4.62558 10.6749ZM18.776 10.3149C18.7201 10.3707 18.6758 10.4369 18.6455 10.5098C18.6153 10.5827 18.5997 10.6608 18.5997 10.7397C18.5997 10.8187 18.6153 10.8968 18.6455 10.9697C18.6758 11.0426 18.7201 11.1088 18.776 11.1645L19.1816 11.5689C19.5681 11.9555 19.8748 12.4144 20.0839 12.9195C20.2931 13.4246 20.4008 13.9659 20.4008 14.5125V17.0997C20.4008 17.2589 20.464 17.4115 20.5765 17.524C20.689 17.6365 20.8417 17.6997 21.0008 17.6997C21.1599 17.6997 21.3125 17.6365 21.425 17.524C21.5376 17.4115 21.6008 17.2589 21.6008 17.0997V14.5125C21.6006 13.0903 21.0356 11.7263 20.03 10.7205L19.6256 10.3149C19.5698 10.2591 19.5036 10.2147 19.4307 10.1845C19.3578 10.1542 19.2797 10.1387 19.2008 10.1387C19.1219 10.1387 19.0437 10.1542 18.9708 10.1845C18.8979 10.2147 18.8317 10.2591 18.776 10.3149Z" fill="#9BC327"/>
<path fill-rule="evenodd" clip-rule="evenodd" d="M16.8012 10.7998C16.1647 10.7998 15.5542 10.5469 15.1041 10.0969C14.654 9.64677 14.4012 9.03632 14.4012 8.3998C14.4012 7.76329 14.654 7.15284 15.1041 6.70275C15.5542 6.25266 16.1647 5.9998 16.8012 5.9998C17.4377 5.9998 18.0481 6.25266 18.4982 6.70275C18.9483 7.15284 19.2012 7.76329 19.2012 8.3998C19.2012 9.03632 18.9483 9.64677 18.4982 10.0969C18.0481 10.5469 17.4377 10.7998 16.8012 10.7998ZM16.8012 11.9998C16.3284 11.9998 15.8603 11.9067 15.4235 11.7258C14.9867 11.5449 14.5899 11.2797 14.2556 10.9454C13.9213 10.6111 13.6561 10.2142 13.4752 9.77747C13.2943 9.34069 13.2012 8.87256 13.2012 8.3998C13.2012 7.92705 13.2943 7.45892 13.4752 7.02214C13.6561 6.58537 13.9213 6.18851 14.2556 5.85422C14.5899 5.51993 14.9867 5.25476 15.4235 5.07384C15.8603 4.89292 16.3284 4.7998 16.8012 4.7998C17.756 4.7998 18.6716 5.17909 19.3468 5.85422C20.0219 6.52935 20.4012 7.44503 20.4012 8.3998C20.4012 9.35458 20.0219 10.2703 19.3468 10.9454C18.6716 11.6205 17.756 11.9998 16.8012 11.9998ZM11.4012 15.8998C10.6055 15.8998 9.84246 16.2159 9.27985 16.7785C8.71724 17.3411 8.40117 18.1042 8.40117 18.8998V20.4598C8.40117 20.6189 8.33796 20.7715 8.22544 20.8841C8.11291 20.9966 7.9603 21.0598 7.80117 21.0598C7.64204 21.0598 7.48943 20.9966 7.37691 20.8841C7.26439 20.7715 7.20117 20.6189 7.20117 20.4598V18.8998C7.20117 17.7859 7.64367 16.7176 8.43132 15.93C9.21898 15.1423 10.2873 14.6998 11.4012 14.6998C12.5151 14.6998 13.5834 15.1423 14.371 15.93C15.1587 16.7176 15.6012 17.7859 15.6012 18.8998V20.4598C15.6012 20.6189 15.538 20.7715 15.4254 20.8841C15.3129 20.9966 15.1603 21.0598 15.0012 21.0598C14.842 21.0598 14.6894 20.9966 14.5769 20.8841C14.4644 20.7715 14.4012 20.6189 14.4012 20.4598V18.8998C14.4012 18.5058 14.3236 18.1157 14.1728 17.7518C14.022 17.3878 13.8011 17.0571 13.5225 16.7785C13.2439 16.4999 12.9132 16.2789 12.5492 16.1282C12.1852 15.9774 11.7951 15.8998 11.4012 15.8998Z" fill="#9BC327"/>
<path fill-rule="evenodd" clip-rule="evenodd" d="M11.4008 14.0996C12.0373 14.0996 12.6477 13.8468 13.0978 13.3967C13.5479 12.9466 13.8008 12.3361 13.8008 11.6996C13.8008 11.0631 13.5479 10.4526 13.0978 10.0026C12.6477 9.55247 12.0373 9.29961 11.4008 9.29961C10.7643 9.29961 10.1538 9.55247 9.70373 10.0026C9.25364 10.4526 9.00078 11.0631 9.00078 11.6996C9.00078 12.3361 9.25364 12.9466 9.70373 13.3967C10.1538 13.8468 10.7643 14.0996 11.4008 14.0996ZM11.4008 15.2996C12.3556 15.2996 13.2712 14.9203 13.9464 14.2452C14.6215 13.5701 15.0008 12.6544 15.0008 11.6996C15.0008 10.7448 14.6215 9.82916 13.9464 9.15403C13.2712 8.47889 12.3556 8.09961 11.4008 8.09961C10.446 8.09961 9.53033 8.47889 8.8552 9.15403C8.18007 9.82916 7.80078 10.7448 7.80078 11.6996C7.80078 12.6544 8.18007 13.5701 8.8552 14.2452C9.53033 14.9203 10.446 15.2996 11.4008 15.2996Z" fill="#9BC327"/>
</svg>
