<svg width="20" height="22" viewBox="0 0 20 22" fill="none" xmlns="http://www.w3.org/2000/svg">
<path d="M9.28713 0.743037C9.28713 0.47763 9.43542 0.232205 9.67625 0.0995211C9.91707 -0.0331626 10.2136 -0.0331848 10.4545 0.0995211C10.6951 0.232227 10.8434 0.477634 10.8434 0.743037V1.60276C10.3259 1.55702 9.80486 1.55702 9.28716 1.60276L9.28713 0.743037ZM10.0624 21.7391C9.68791 21.7384 9.32411 21.6189 9.02863 21.3991C8.73316 21.1794 8.52255 20.8721 8.43021 20.5255H11.6967C11.6041 20.8725 11.3934 21.1799 11.0973 21.3996C10.8015 21.6195 10.4373 21.7389 10.0624 21.7391ZM19.1703 19.5156C19.1703 19.6369 19.0674 19.735 18.9406 19.735H1.18517C1.05838 19.7348 0.955636 19.6367 0.955454 19.5156V18.4011C0.955636 18.2801 1.05838 18.182 1.18517 18.1818C1.72786 18.1811 2.24831 17.975 2.63193 17.6086C3.01576 17.2421 3.23161 16.7454 3.23236 16.2271V8.8774C3.17771 4.95958 7.1408 1.72762 11.1874 2.44536C12.7762 2.71094 14.2176 3.50006 15.2601 4.67525C16.3028 5.85048 16.8809 7.33751 16.894 8.87762V16.2273C16.8947 16.7456 17.1106 17.2424 17.4944 17.6088C17.8781 17.9753 18.3985 18.1813 18.9412 18.182C19.068 18.1822 19.1707 18.2803 19.1709 18.4014L19.1703 19.5156ZM19.8887 7.75265C19.7691 7.88153 19.5818 7.93232 19.4089 7.88275C19.236 7.83335 19.1091 7.69248 19.0834 7.52203C18.7427 5.34677 17.5279 3.38368 15.6965 2.04949C15.2227 1.69034 15.8364 0.980901 16.3086 1.33189C17.3193 2.06116 18.1663 2.97668 18.7999 4.02408C19.4335 5.07161 19.8405 6.22979 19.997 7.43004C20.0117 7.54744 19.9722 7.66517 19.8887 7.75265ZM0.000720708 7.43089C0.157387 6.23046 0.564539 5.07228 1.19812 4.02493C1.83171 2.97739 2.67898 2.06201 3.68965 1.33256C3.89806 1.18525 4.1908 1.22038 4.35458 1.41239C4.51835 1.60423 4.49503 1.88529 4.30175 2.05017C2.47025 3.38435 1.25554 5.34745 0.915245 7.5227C0.877719 7.75454 0.656383 7.91734 0.412099 7.89281C0.16781 7.86829 -0.0132652 7.66497 0.000762693 7.43087L0.000720708 7.43089Z" fill="black" fill-opacity="0.5"/>
</svg>
