<svg width="24" height="24" viewBox="0 0 24 24" fill="none" xmlns="http://www.w3.org/2000/svg">
<path d="M20.1395 13.3523L20.1441 13.3547C20.2168 12.9117 20.252 12.4594 20.252 12.0117C20.252 11.6109 20.2215 11.2078 20.1652 10.8141C20.2215 11.2055 20.2496 11.6016 20.2496 11.9977C20.2496 12.4523 20.2121 12.907 20.1395 13.3523ZM2.31992 9.33047C2.3082 9.32109 2.29883 9.31172 2.28711 9.3C2.30352 9.31641 2.31992 9.33281 2.33867 9.34922L3.87383 10.6594V10.657L2.31992 9.33047ZM14.8965 4.26797H14.8988L14.5355 2.30391C14.5309 2.28047 14.5262 2.25937 14.5191 2.23828C14.5215 2.25 14.5262 2.26406 14.5285 2.27578L14.8965 4.26797ZM16.1621 17.0766L16.898 16.4719L19.073 17.243C19.4715 16.7063 19.8066 16.1297 20.0715 15.518L18.3207 14.0203L18.4754 13.0805C18.534 12.7266 18.5645 12.3633 18.5645 12C18.5645 11.6367 18.534 11.2734 18.4754 10.9195L18.323 9.98438L20.0738 8.48672C19.8066 7.87734 19.4738 7.29844 19.0754 6.76172L16.9004 7.53281L16.1645 6.92813C15.6043 6.46875 14.9785 6.10781 14.3059 5.85469L13.4129 5.51953L12.9934 3.24609C12.3314 3.17109 11.6631 3.17109 11.0012 3.24609L10.5816 5.52422L9.69336 5.85938C9.02539 6.1125 8.4043 6.47344 7.84883 6.93047L7.11289 7.5375L4.92383 6.75937C4.52539 7.29609 4.19023 7.87266 3.92539 8.48438L5.69492 9.99609L5.54258 10.9336C5.48398 11.2828 5.45586 11.6414 5.45586 12C5.45586 12.3562 5.48633 12.7172 5.54258 13.0664L5.69492 14.0039L3.92539 15.5156C4.19258 16.125 4.52539 16.7039 4.92383 17.2406L7.11289 16.4625L7.84883 17.0695C8.4043 17.5266 9.02539 17.8875 9.69336 18.1406L10.5793 18.4805L10.9988 20.7586C11.6598 20.8336 12.3324 20.8336 12.991 20.7586L13.4105 18.4852L14.3035 18.15C14.9785 17.8969 15.602 17.5359 16.1621 17.0766ZM12.0113 15.8977C11.2965 15.8977 10.6238 15.7148 10.0355 15.3937C8.74883 14.6953 7.87461 13.3336 7.87461 11.7656C7.87461 9.4875 9.72148 7.64062 11.9996 7.64062C13.5676 7.64062 14.9293 8.51484 15.6277 9.80156C15.9488 10.3875 16.1316 11.0602 16.1316 11.7773C16.1316 14.0531 14.2871 15.8977 12.0113 15.8977ZM4.85586 19.05C4.72695 19.0945 4.59336 19.1039 4.4668 19.0781C4.60039 19.1063 4.74102 19.1016 4.87695 19.0547L6.78477 18.375C6.78242 18.3727 6.77773 18.3703 6.77539 18.368L4.85586 19.05ZM21.6746 9.33047L20.1395 10.643C20.1395 10.6477 20.1418 10.6547 20.1418 10.6594L21.6746 9.34922C21.841 9.20625 21.9348 9 21.9371 8.78672C21.9301 8.99297 21.8363 9.19219 21.6746 9.33047Z" fill="white" fill-opacity="0.15"/>
<path d="M21.933 15.1543C21.9447 15.2645 21.933 15.377 21.8932 15.4848L21.8721 15.5457C21.4484 16.7264 20.8156 17.8212 20.0041 18.7777L19.9619 18.827C19.8636 18.9432 19.7322 19.0267 19.5853 19.0665C19.4383 19.1063 19.2828 19.1004 19.1393 19.0496L17.2338 18.3723C16.5348 18.9482 15.7452 19.4044 14.8971 19.7223L14.5291 21.7145C14.5013 21.8644 14.4286 22.0023 14.3206 22.1098C14.2126 22.2174 14.0744 22.2896 13.9244 22.3168L13.8611 22.3285C13.2486 22.4392 12.6274 22.4949 12.0049 22.4949H12.0119C12.6377 22.4949 13.2635 22.4387 13.8729 22.3285L13.9361 22.3168C14.0861 22.2896 14.2243 22.2174 14.3323 22.1098C14.4403 22.0023 14.5131 21.8644 14.5408 21.7145L14.9088 19.7246C15.7572 19.4059 16.54 18.9535 17.2432 18.377L19.1463 19.0543C19.2898 19.1051 19.4454 19.1109 19.5923 19.0712C19.7393 19.0314 19.8706 18.9479 19.9689 18.8316L20.0111 18.7824C20.8268 17.8191 21.4525 16.734 21.8768 15.5551L21.8979 15.4941C21.9354 15.384 21.9471 15.2668 21.933 15.1543Z" fill="white" fill-opacity="0.15"/>
<path d="M16.125 11.7656C16.125 11.0555 15.9445 10.3852 15.6281 9.80156C14.9297 8.51484 13.568 7.64062 12 7.64062C9.72188 7.64062 7.875 9.4875 7.875 11.7656C7.875 13.3336 8.74922 14.6953 10.0359 15.3937C10.6195 15.7102 11.2875 15.8906 12 15.8906C14.2781 15.8906 16.125 14.0437 16.125 11.7656ZM9.375 11.7656C9.375 11.0648 9.64922 10.4062 10.1437 9.90937C10.6406 9.4125 11.2992 9.14062 12 9.14062C12.7008 9.14062 13.3594 9.4125 13.8563 9.90937C14.1004 10.1528 14.294 10.4422 14.426 10.7607C14.5579 11.0793 14.6255 11.4208 14.625 11.7656C14.625 12.4664 14.3508 13.125 13.8563 13.6219C13.6128 13.866 13.3234 14.0597 13.0049 14.1916C12.6863 14.3235 12.3448 14.3912 12 14.3906C11.2992 14.3906 10.6406 14.1164 10.1437 13.6219C9.89959 13.3784 9.70597 13.0891 9.57404 12.7705C9.44211 12.4519 9.37446 12.1104 9.375 11.7656Z" fill="#7F7F7F"/>
<path d="M13.924 22.3168C14.074 22.2896 14.2122 22.2174 14.3202 22.1098C14.4282 22.0023 14.501 21.8644 14.5287 21.7145L14.8967 19.7223C15.7448 19.4044 16.5344 18.9482 17.2334 18.3723L19.1389 19.0496C19.2824 19.1004 19.438 19.1063 19.5849 19.0665C19.7318 19.0267 19.8632 18.9432 19.9615 18.827L20.0037 18.7777C20.8193 17.8145 21.4475 16.727 21.8717 15.5457L21.8928 15.4848C21.9326 15.377 21.9443 15.2645 21.9326 15.1543C21.9115 14.9691 21.8225 14.7934 21.6748 14.6645L20.1443 13.3543L20.1397 13.352C20.2123 12.9066 20.2498 12.452 20.2498 11.9973C20.2498 11.6012 20.2217 11.2027 20.1654 10.8137C20.1584 10.7621 20.149 10.7105 20.142 10.659C20.142 10.6543 20.1397 10.6473 20.1397 10.6426L21.6748 9.33008C21.8365 9.1918 21.9303 8.99258 21.9373 8.78633C21.9397 8.69258 21.9256 8.59648 21.8928 8.50508L21.8717 8.44414C21.4491 7.26295 20.8162 6.16797 20.0037 5.21211L19.9615 5.16289C19.863 5.047 19.7316 4.96369 19.5847 4.92394C19.4379 4.88419 19.2824 4.88987 19.1389 4.94023L17.2334 5.61758C16.5303 5.04102 15.7475 4.58633 14.899 4.26758H14.8967L14.5287 2.27539C14.5264 2.26367 14.524 2.24961 14.5193 2.23789C14.4855 2.09619 14.4112 1.96737 14.3055 1.86709C14.1999 1.76681 14.0673 1.6994 13.924 1.67305L13.8607 1.66133C12.6397 1.44102 11.3553 1.44102 10.1342 1.66133L10.0709 1.67305C9.9209 1.70023 9.78271 1.77241 9.6747 1.87999C9.56669 1.98758 9.49398 2.12549 9.46622 2.27539L9.0959 4.27695C8.25424 4.59577 7.47043 5.05022 6.77559 5.62227L4.85606 4.94023C4.71254 4.88947 4.55698 4.88359 4.41003 4.92336C4.26309 4.96313 4.13173 5.04667 4.0334 5.16289L3.99122 5.21211C3.17968 6.16865 2.54694 7.26345 2.12325 8.44414L2.10215 8.50508C2.05331 8.64129 2.0448 8.7887 2.07764 8.92963C2.11049 9.07056 2.18328 9.19902 2.28731 9.29961C2.29903 9.30898 2.3084 9.3207 2.32012 9.33008L3.87403 10.6566V10.659C3.80137 11.0996 3.76622 11.5473 3.76622 11.9949C3.76622 12.4449 3.80137 12.8949 3.87403 13.3332L2.32012 14.6598C2.20433 14.7589 2.12146 14.8909 2.08252 15.0383C2.04359 15.1857 2.05043 15.3414 2.10215 15.4848L2.12325 15.5457C2.54747 16.727 3.17559 17.8168 3.99122 18.7777L4.0334 18.827C4.14825 18.9605 4.30059 19.0473 4.467 19.0777C4.59356 19.1012 4.72715 19.0941 4.85606 19.0496L6.77559 18.3676C6.77793 18.3699 6.78262 18.3723 6.78497 18.3746C7.48106 18.9441 8.25684 19.3965 9.0959 19.7129L9.46622 21.7145C9.49398 21.8644 9.56669 22.0023 9.6747 22.1098C9.78271 22.2174 9.9209 22.2896 10.0709 22.3168L10.1342 22.3285C10.7459 22.4387 11.3717 22.4949 11.9975 22.4949H12.0045C12.6279 22.4949 13.2537 22.4387 13.8607 22.3285L13.924 22.3168ZM12.9912 20.7582C12.3293 20.8332 11.661 20.8332 10.999 20.7582L10.5795 18.4801L9.69356 18.1402C9.02559 17.8871 8.4045 17.5262 7.84903 17.0691L7.11309 16.4621L4.92403 17.2402C4.52559 16.7035 4.19278 16.1246 3.92559 15.5152L5.69512 14.0035L5.54278 13.066C5.48653 12.7168 5.45606 12.3559 5.45606 11.9996C5.45606 11.641 5.48418 11.2824 5.54278 10.9332L5.69512 9.9957L3.92559 8.48398C4.19043 7.87227 4.52559 7.2957 4.92403 6.75898L7.11309 7.53711L7.84903 6.93008C8.4045 6.47305 9.02559 6.11211 9.69356 5.85898L10.5818 5.52383L11.0014 3.2457C11.66 3.1707 12.3326 3.1707 12.9936 3.2457L13.4131 5.51914L14.3061 5.8543C14.9787 6.10742 15.6045 6.46836 16.1647 6.92773L16.9006 7.53242L19.0756 6.76133C19.474 7.29805 19.8068 7.87695 20.074 8.48633L18.3232 9.98398L18.4756 10.9191C18.5342 11.273 18.5647 11.6363 18.5647 11.9996C18.5647 12.3629 18.5342 12.7262 18.4756 13.0801L18.3209 14.0199L20.0717 15.5176C19.8063 16.129 19.4712 16.7079 19.0732 17.2426L16.8982 16.4715L16.1623 17.0762C15.6022 17.5355 14.9787 17.8965 14.3037 18.1496L13.4107 18.4848L12.9912 20.7582Z" fill="#7F7F7F"/>
</svg>
