<svg width="71" height="25" viewBox="0 0 71 25" fill="none" xmlns="http://www.w3.org/2000/svg">
<rect width="71" height="25" rx="12.5" fill="#9BC327"/>
<path d="M29.732 16.12C29.076 16.12 28.448 16.028 27.848 15.844C27.248 15.652 26.772 15.408 26.42 15.112L26.96 13.9C27.296 14.164 27.712 14.384 28.208 14.56C28.704 14.736 29.212 14.824 29.732 14.824C30.172 14.824 30.528 14.776 30.8 14.68C31.072 14.584 31.272 14.456 31.4 14.296C31.528 14.128 31.592 13.94 31.592 13.732C31.592 13.476 31.5 13.272 31.316 13.12C31.132 12.96 30.892 12.836 30.596 12.748C30.308 12.652 29.984 12.564 29.624 12.484C29.272 12.404 28.916 12.312 28.556 12.208C28.204 12.096 27.88 11.956 27.584 11.788C27.296 11.612 27.06 11.38 26.876 11.092C26.692 10.804 26.6 10.436 26.6 9.988C26.6 9.532 26.72 9.116 26.96 8.74C27.208 8.356 27.58 8.052 28.076 7.828C28.58 7.596 29.216 7.48 29.984 7.48C30.488 7.48 30.988 7.544 31.484 7.672C31.98 7.8 32.412 7.984 32.78 8.224L32.288 9.436C31.912 9.212 31.524 9.048 31.124 8.944C30.724 8.832 30.34 8.776 29.972 8.776C29.54 8.776 29.188 8.828 28.916 8.932C28.652 9.036 28.456 9.172 28.328 9.34C28.208 9.508 28.148 9.7 28.148 9.916C28.148 10.172 28.236 10.38 28.412 10.54C28.596 10.692 28.832 10.812 29.12 10.9C29.416 10.988 29.744 11.076 30.104 11.164C30.464 11.244 30.82 11.336 31.172 11.44C31.532 11.544 31.856 11.68 32.144 11.848C32.44 12.016 32.676 12.244 32.852 12.532C33.036 12.82 33.128 13.184 33.128 13.624C33.128 14.072 33.004 14.488 32.756 14.872C32.516 15.248 32.144 15.552 31.64 15.784C31.136 16.008 30.5 16.12 29.732 16.12ZM38.1669 9.52C38.6789 9.52 39.1349 9.62 39.5349 9.82C39.9429 10.02 40.2629 10.328 40.4949 10.744C40.7269 11.152 40.8429 11.68 40.8429 12.328V16H39.3429V12.52C39.3429 11.952 39.2069 11.528 38.9349 11.248C38.6709 10.968 38.2989 10.828 37.8189 10.828C37.4669 10.828 37.1549 10.9 36.8829 11.044C36.6109 11.188 36.3989 11.404 36.2469 11.692C36.1029 11.972 36.0309 12.328 36.0309 12.76V16H34.5309V7.096H36.0309V11.32L35.7069 10.792C35.9309 10.384 36.2549 10.072 36.6789 9.856C37.1109 9.632 37.6069 9.52 38.1669 9.52ZM46.6937 16V14.704L46.6097 14.428V12.16C46.6097 11.72 46.4777 11.38 46.2137 11.14C45.9497 10.892 45.5497 10.768 45.0137 10.768C44.6537 10.768 44.2977 10.824 43.9457 10.936C43.6017 11.048 43.3097 11.204 43.0697 11.404L42.4817 10.312C42.8257 10.048 43.2337 9.852 43.7057 9.724C44.1857 9.588 44.6817 9.52 45.1937 9.52C46.1217 9.52 46.8377 9.744 47.3417 10.192C47.8537 10.632 48.1097 11.316 48.1097 12.244V16H46.6937ZM44.6777 16.084C44.1977 16.084 43.7777 16.004 43.4177 15.844C43.0577 15.676 42.7777 15.448 42.5777 15.16C42.3857 14.864 42.2897 14.532 42.2897 14.164C42.2897 13.804 42.3737 13.48 42.5417 13.192C42.7177 12.904 43.0017 12.676 43.3937 12.508C43.7857 12.34 44.3057 12.256 44.9537 12.256H46.8137V13.252H45.0617C44.5497 13.252 44.2057 13.336 44.0297 13.504C43.8537 13.664 43.7657 13.864 43.7657 14.104C43.7657 14.376 43.8737 14.592 44.0897 14.752C44.3057 14.912 44.6057 14.992 44.9897 14.992C45.3577 14.992 45.6857 14.908 45.9737 14.74C46.2697 14.572 46.4817 14.324 46.6097 13.996L46.8617 14.896C46.7177 15.272 46.4577 15.564 46.0817 15.772C45.7137 15.98 45.2457 16.084 44.6777 16.084ZM50.0348 16V9.592H51.4628V11.356L51.2948 10.84C51.4868 10.408 51.7868 10.08 52.1948 9.856C52.6108 9.632 53.1268 9.52 53.7428 9.52V10.948C53.6788 10.932 53.6188 10.924 53.5628 10.924C53.5068 10.916 53.4508 10.912 53.3948 10.912C52.8268 10.912 52.3748 11.08 52.0388 11.416C51.7028 11.744 51.5348 12.236 51.5348 12.892V16H50.0348ZM57.9687 16.084C57.2567 16.084 56.6327 15.944 56.0967 15.664C55.5687 15.376 55.1567 14.984 54.8607 14.488C54.5727 13.992 54.4287 13.428 54.4287 12.796C54.4287 12.156 54.5687 11.592 54.8487 11.104C55.1367 10.608 55.5287 10.22 56.0247 9.94C56.5287 9.66 57.1007 9.52 57.7407 9.52C58.3647 9.52 58.9207 9.656 59.4087 9.928C59.8967 10.2 60.2807 10.584 60.5607 11.08C60.8407 11.576 60.9807 12.16 60.9807 12.832C60.9807 12.896 60.9767 12.968 60.9687 13.048C60.9687 13.128 60.9647 13.204 60.9567 13.276H55.6167V12.28H60.1647L59.5767 12.592C59.5847 12.224 59.5087 11.9 59.3487 11.62C59.1887 11.34 58.9687 11.12 58.6887 10.96C58.4167 10.8 58.1007 10.72 57.7407 10.72C57.3727 10.72 57.0487 10.8 56.7687 10.96C56.4967 11.12 56.2807 11.344 56.1207 11.632C55.9687 11.912 55.8927 12.244 55.8927 12.628V12.868C55.8927 13.252 55.9807 13.592 56.1567 13.888C56.3327 14.184 56.5807 14.412 56.9007 14.572C57.2207 14.732 57.5887 14.812 58.0047 14.812C58.3647 14.812 58.6887 14.756 58.9767 14.644C59.2647 14.532 59.5207 14.356 59.7447 14.116L60.5487 15.04C60.2607 15.376 59.8967 15.636 59.4567 15.82C59.0247 15.996 58.5287 16.084 57.9687 16.084Z" fill="white"/>
<path d="M21 12L17.8 8.5V10.25C16.2 10.25 13 11.3 13 15.5C13 14.9165 13.96 13.75 17.8 13.75V15.5L21 12Z" fill="white" stroke="white" stroke-linecap="round" stroke-linejoin="round"/>
</svg>
