<svg width="34" height="34" viewBox="0 0 34 34" fill="none" xmlns="http://www.w3.org/2000/svg">
<rect width="34" height="34" rx="12" fill="#9BC327"/>
<path d="M28.4379 24.9464V26.2517C28.2879 26.6306 26.2629 27.3043 22.7004 27.3043C19.1379 27.3043 17.1129 26.6306 16.9629 26.2517V24.9464C16.9629 24.9464 16.9629 24.9043 17.0004 24.9043C17.3004 25.0727 17.7504 25.2832 18.4629 25.4517C19.5879 25.7043 21.0879 25.8306 22.7004 25.8306C24.3129 25.8306 25.8129 25.7043 26.9379 25.4517C27.6879 25.2832 28.1379 25.0727 28.4379 24.9464C28.4379 24.9043 28.4379 24.9043 28.4379 24.9464Z" fill="white"/>
<path d="M28.4379 22.462V23.7673C28.2879 24.1462 26.2629 24.8199 22.7004 24.8199C19.1379 24.8199 17.1129 24.1462 16.9629 23.7673V22.462C16.9629 22.462 16.9629 22.4199 17.0004 22.4199C17.3004 22.5883 17.7504 22.7989 18.4629 22.9673C19.5879 23.2199 21.0879 23.3462 22.7004 23.3462C24.3129 23.3462 25.8129 23.2199 26.9379 22.9673C27.6879 22.7989 28.1379 22.5883 28.4379 22.462Z" fill="white"/>
<path d="M28.4379 19.9777V21.2829C28.2879 21.6619 26.2629 22.3355 22.7004 22.3355C19.1379 22.3355 17.1129 21.6619 16.9629 21.2829V19.9777C16.9629 19.9777 16.9629 19.9355 17.0004 19.9355C17.3004 20.104 17.7504 20.3145 18.4629 20.4829C19.5879 20.7355 21.0879 20.8619 22.7004 20.8619C24.3129 20.8619 25.8129 20.7355 26.9379 20.4829C27.6879 20.3145 28.1379 20.104 28.4379 19.9777Z" fill="white"/>
<path d="M28.4379 17.494V18.7993C28.2879 19.1782 26.2629 19.8519 22.7004 19.8519C19.1379 19.8519 17.1129 19.1782 16.9629 18.7993V17.494C17.1129 17.1151 19.1379 16.4414 22.7004 16.4414C26.2629 16.4414 28.2879 17.1151 28.4379 17.494Z" fill="white"/>
<path d="M16.475 24.9484V26.2536C16.325 26.6326 14.3 27.3063 10.7375 27.3063C7.175 27.3063 5.15 26.6326 5 26.2536V24.9484C5 24.9484 5 24.9062 5.0375 24.9062C5.3375 25.0747 5.7875 25.2852 6.5 25.4536C7.625 25.7063 9.125 25.8326 10.7375 25.8326C12.35 25.8326 13.85 25.7063 14.975 25.4536C15.725 25.2852 16.175 25.0747 16.475 24.9484C16.475 24.9063 16.475 24.9063 16.475 24.9484Z" fill="white"/>
<path d="M16.475 22.464V23.7692C16.325 24.1482 14.3 24.8219 10.7375 24.8219C7.175 24.8219 5.15 24.1482 5 23.7692V22.464C5 22.464 5 22.4219 5.0375 22.4219C5.3375 22.5903 5.7875 22.8008 6.5 22.9692C7.625 23.2219 9.125 23.3482 10.7375 23.3482C12.35 23.3482 13.85 23.2219 14.975 22.9692C15.725 22.8008 16.175 22.5903 16.475 22.464Z" fill="white"/>
<path d="M16.475 19.9784V21.2837C16.325 21.6626 14.3 22.3363 10.7375 22.3363C7.175 22.3363 5.15 21.6626 5 21.2837V19.9784C5.1875 19.5995 7.2125 18.9258 10.7375 18.9258C14.3 18.9258 16.325 19.5995 16.475 19.9784Z" fill="white"/>
<path d="M5.86265 17.9158C6.08765 17.9579 6.38765 17.9158 6.61265 17.7474L14.7877 12.0211L15.3127 11.7263L16.5502 13.9158C16.7377 14.2526 17.0377 14.5053 17.4127 14.5895C17.7877 14.6737 18.1627 14.6316 18.4627 14.3789L23.7877 10.6316L24.9877 12.8211C25.0627 12.9474 25.2127 12.9474 25.2877 12.8211L28.4002 6.25263C28.4752 6.12632 28.3627 6 28.2502 6L21.6502 6.25263C21.5377 6.25263 21.4627 6.42105 21.5002 6.54737L22.7002 8.73684L17.9377 12.0632L16.6627 9.83158C16.4752 9.49474 16.1752 9.24211 15.8002 9.15789C15.4252 9.07368 15.0502 9.11579 14.7502 9.36842L5.52515 15.8105C5.03765 16.1474 4.88765 16.8632 5.18765 17.4105C5.33765 17.6632 5.60015 17.8316 5.86265 17.9158Z" fill="white"/>
</svg>
