<svg width="20" height="18" viewBox="0 0 20 18" fill="none" xmlns="http://www.w3.org/2000/svg">
<path d="M19.9998 16.0063V17.109C19.8718 17.4291 18.1439 17.9983 15.1039 17.9983C12.064 17.9983 10.336 17.4291 10.208 17.109V16.0063C10.208 16.0063 10.208 15.9707 10.24 15.9707C10.496 16.113 10.88 16.2908 11.488 16.4331C12.448 16.6466 13.7279 16.7533 15.1039 16.7533C16.4799 16.7533 17.7599 16.6466 18.7199 16.4331C19.3599 16.2908 19.7438 16.113 19.9998 16.0063C19.9998 15.9707 19.9998 15.9707 19.9998 16.0063Z" fill="#7F7F7F"/>
<path d="M19.9998 13.9067V15.0094C19.8718 15.3295 18.1439 15.8987 15.1039 15.8987C12.064 15.8987 10.336 15.3295 10.208 15.0094V13.9067C10.208 13.9067 10.208 13.8711 10.24 13.8711C10.496 14.0134 10.88 14.1912 11.488 14.3335C12.448 14.547 13.7279 14.6537 15.1039 14.6537C16.4799 14.6537 17.7599 14.547 18.7199 14.3335C19.3599 14.1912 19.7438 14.0134 19.9998 13.9067Z" fill="#7F7F7F"/>
<path d="M19.9998 11.809V12.9117C19.8718 13.2319 18.1439 13.801 15.1039 13.801C12.064 13.801 10.336 13.2319 10.208 12.9117V11.809C10.208 11.809 10.208 11.7734 10.24 11.7734C10.496 11.9157 10.88 12.0936 11.488 12.2359C12.448 12.4493 13.7279 12.556 15.1039 12.556C16.4799 12.556 17.7599 12.4493 18.7199 12.2359C19.3599 12.0936 19.7438 11.9157 19.9998 11.809Z" fill="#7F7F7F"/>
<path d="M19.9998 9.7096V10.8123C19.8718 11.1325 18.1439 11.7016 15.1039 11.7016C12.064 11.7016 10.336 11.1325 10.208 10.8123V9.7096C10.336 9.38946 12.064 8.82031 15.1039 8.82031C18.1439 8.82031 19.8718 9.38946 19.9998 9.7096Z" fill="#7F7F7F"/>
<path d="M9.79184 16.0082V17.1109C9.66384 17.4311 7.93587 18.0002 4.89592 18.0002C1.85597 18.0002 0.127998 17.4311 0 17.1109V16.0082C0 16.0082 7.15244e-09 15.9727 0.0319995 15.9727C0.287995 16.1149 0.671989 16.2928 1.27998 16.4351C2.23996 16.6485 3.51994 16.7552 4.89592 16.7552C6.2719 16.7552 7.55187 16.6485 8.51186 16.4351C9.15185 16.2928 9.53584 16.1149 9.79184 16.0082C9.79184 15.9727 9.79184 15.9727 9.79184 16.0082Z" fill="#7F7F7F"/>
<path d="M9.79184 13.9086V15.0113C9.66384 15.3315 7.93587 15.9006 4.89592 15.9006C1.85597 15.9006 0.127998 15.3315 0 15.0113V13.9086C0 13.9086 7.15244e-09 13.873 0.0319995 13.873C0.287995 14.0153 0.671989 14.1932 1.27998 14.3355C2.23996 14.5489 3.51994 14.6556 4.89592 14.6556C6.2719 14.6556 7.55187 14.5489 8.51186 14.3355C9.15185 14.1932 9.53584 14.0153 9.79184 13.9086Z" fill="#7F7F7F"/>
<path d="M9.79184 11.8092V12.9119C9.66384 13.2321 7.93587 13.8012 4.89592 13.8012C1.85597 13.8012 0.127998 13.2321 0 12.9119V11.8092C0.159997 11.4891 1.88797 10.9199 4.89592 10.9199C7.93587 10.9199 9.66384 11.4891 9.79184 11.8092Z" fill="#7F7F7F"/>
<path d="M0.736107 10.0667C0.928104 10.1023 1.1841 10.0667 1.3761 9.92444L8.35198 5.08672L8.79997 4.83772L9.85596 6.68744C10.016 6.97201 10.2719 7.18544 10.5919 7.25658C10.9119 7.32772 11.2319 7.29215 11.4879 7.07872L16.0319 3.91286L17.0558 5.76258C17.1198 5.86929 17.2478 5.86929 17.3118 5.76258L19.9678 0.213429C20.0318 0.106715 19.9358 0 19.8398 0L14.2079 0.213429C14.1119 0.213429 14.0479 0.355715 14.0799 0.462429L15.1039 2.31215L11.0399 5.12229L9.95195 3.237C9.79196 2.95243 9.53596 2.739 9.21597 2.66786C8.89597 2.59672 8.57598 2.63229 8.31998 2.84572L0.448112 8.28815C0.0321185 8.57273 -0.0958793 9.17744 0.160116 9.63987C0.288114 9.8533 0.512111 9.99558 0.736107 10.0667Z" fill="#7F7F7F"/>
</svg>
