<svg width="20" height="20" viewBox="0 0 20 20" fill="none" xmlns="http://www.w3.org/2000/svg">
<path d="M0.426172 9.91253C0.425703 11.5985 0.868203 13.2447 1.70961 14.6957L0.345703 19.6533L5.44195 18.323C6.85151 19.087 8.43081 19.4873 10.0357 19.4874H10.0399C15.338 19.4874 19.6507 15.1954 19.653 9.92007C19.654 7.36379 18.6549 4.96003 16.8398 3.15157C15.0249 1.34326 12.6113 0.34687 10.0395 0.345703C4.74086 0.345703 0.428438 4.63741 0.42625 9.91253" fill="url(#paint0_linear_1913_976)"/>
<path d="M0.0835938 9.90997C0.0830469 11.6566 0.541406 13.3617 1.41281 14.8646L0 20L5.27898 18.622C6.73352 19.4115 8.37117 19.8278 10.0376 19.8284H10.0419C15.53 19.8284 19.9977 15.3821 20 9.91791C20.0009 7.26977 18.9659 4.7796 17.0859 2.90635C15.2057 1.03334 12.7057 0.00108887 10.0419 0C4.55281 0 0.0857813 4.44571 0.0835938 9.90997ZM3.22734 14.6058L3.03023 14.2943C2.20164 12.9827 1.7643 11.467 1.76492 9.9106C1.76672 5.36884 5.47953 1.67375 10.045 1.67375C12.2559 1.67468 14.3337 2.53271 15.8966 4.08949C17.4593 5.64642 18.3192 7.71605 18.3187 9.91728C18.3166 14.459 14.6037 18.1546 10.0419 18.1546H10.0386C8.5532 18.1538 7.09641 17.7567 5.82594 17.0062L5.52359 16.8277L2.39094 17.6454L3.22734 14.6057V14.6058Z" fill="url(#paint1_linear_1913_976)"/>
<path d="M7.55156 5.76775C7.36516 5.3553 7.16898 5.34698 6.99172 5.33975C6.84656 5.33353 6.68062 5.33399 6.51484 5.33399C6.34891 5.33399 6.0793 5.39614 5.85141 5.64385C5.62328 5.89181 4.98047 6.491 4.98047 7.70968C4.98047 8.92843 5.87211 10.1062 5.99641 10.2716C6.12086 10.4368 7.71773 13.0177 10.2468 14.0106C12.3487 14.8357 12.7764 14.6716 13.2326 14.6302C13.6888 14.589 14.7048 14.0312 14.912 13.4528C15.1195 12.8744 15.1195 12.3787 15.0573 12.2751C14.9951 12.1719 14.8291 12.1099 14.5803 11.9861C14.3314 11.8622 13.1081 11.2629 12.8801 11.1802C12.652 11.0976 12.4861 11.0564 12.3202 11.3044C12.1542 11.5521 11.6777 12.1099 11.5325 12.2751C11.3874 12.4407 11.2422 12.4613 10.9934 12.3374C10.7445 12.2131 9.94313 11.9518 8.99242 11.108C8.25273 10.4515 7.75336 9.64063 7.6082 9.3926C7.46305 9.14496 7.59266 9.01072 7.71742 8.88729C7.82922 8.7763 7.96633 8.59804 8.09086 8.45345C8.21492 8.30879 8.25633 8.20558 8.3393 8.04038C8.42234 7.87503 8.38078 7.73037 8.31867 7.60647C8.25633 7.48257 7.77281 6.25751 7.55156 5.76775Z" fill="white"/>
<defs>
<linearGradient id="paint0_linear_1913_976" x1="965.709" y1="1931.11" x2="965.709" y2="0.345703" gradientUnits="userSpaceOnUse">
<stop stop-color="#1FAF38"/>
<stop offset="1" stop-color="#60D669"/>
</linearGradient>
<linearGradient id="paint1_linear_1913_976" x1="1000" y1="2000" x2="1000" y2="0" gradientUnits="userSpaceOnUse">
<stop stop-color="#F9F9F9"/>
<stop offset="1" stop-color="white"/>
</linearGradient>
</defs>
</svg>
